<mxfile host="65bd71144e">
    <diagram id="GlcFyjg1fMg7Dqu68EW4" name="Page-1">
        <mxGraphModel dx="4698" dy="1430" grid="1" gridSize="10" guides="1" tooltips="1" connect="1" arrows="1" fold="1" page="1" pageScale="1" pageWidth="850" pageHeight="1100" math="0" shadow="0">
            <root>
                <mxCell id="0"/>
                <mxCell id="1" parent="0"/>
                <mxCell id="184" value="" style="strokeWidth=1;shadow=0;dashed=0;align=center;html=1;shape=mxgraph.mockup.containers.browserWindow;rSize=0;strokeColor=#666666;strokeColor2=#008cff;strokeColor3=#c4c4c4;mainText=,;recursiveResize=0;" parent="1" vertex="1">
                    <mxGeometry x="45" y="870" width="755" height="990" as="geometry"/>
                </mxCell>
                <mxCell id="185" value="Assignmentscode-grade" style="strokeWidth=1;shadow=0;dashed=0;align=center;html=1;shape=mxgraph.mockup.containers.anchor;fontSize=17;fontColor=#666666;align=left;" parent="184" vertex="1">
                    <mxGeometry x="60" y="12" width="110" height="26" as="geometry"/>
                </mxCell>
                <mxCell id="186" value="https://www.code-grade.io/student/assignment/:id" style="strokeWidth=1;shadow=0;dashed=0;align=center;html=1;shape=mxgraph.mockup.containers.anchor;rSize=0;fontSize=17;fontColor=#666666;align=left;" parent="184" vertex="1">
                    <mxGeometry x="130" y="60" width="250" height="26" as="geometry"/>
                </mxCell>
                <mxCell id="206" value="" style="group" parent="184" vertex="1" connectable="0">
                    <mxGeometry y="110" width="750" height="60" as="geometry"/>
                </mxCell>
                <mxCell id="187" value="Code-grade" style="html=1;shadow=0;dashed=0;fillColor=#0085FC;strokeColor=none;fontSize=16;fontColor=#ffffff;align=left;spacing=15;" parent="206" vertex="1">
                    <mxGeometry width="750" height="60" as="geometry"/>
                </mxCell>
                <mxCell id="188" value="Home" style="fillColor=none;strokeColor=none;fontSize=14;align=center;fontStyle=1;fontColor=#79BFFD;" parent="187" vertex="1">
                    <mxGeometry width="70" height="40" relative="1" as="geometry">
                        <mxPoint x="140" y="10" as="offset"/>
                    </mxGeometry>
                </mxCell>
                <mxCell id="189" value="Assignments" style="fillColor=none;strokeColor=none;fontSize=14;align=center;spacingRight=0;fontColor=#FFFFFF;fontStyle=1" parent="187" vertex="1">
                    <mxGeometry width="80" height="40" relative="1" as="geometry">
                        <mxPoint x="210" y="10" as="offset"/>
                    </mxGeometry>
                </mxCell>
                <mxCell id="190" value="Questions" style="fillColor=none;strokeColor=none;fontSize=14;fontColor=#79BFFD;align=center;" parent="187" vertex="1">
                    <mxGeometry width="80" height="40" relative="1" as="geometry">
                        <mxPoint x="300" y="10" as="offset"/>
                    </mxGeometry>
                </mxCell>
                <mxCell id="204" value="" style="verticalLabelPosition=bottom;shadow=0;dashed=0;align=center;html=1;verticalAlign=top;strokeWidth=1;shape=mxgraph.mockup.containers.userMale;strokeColor2=#008cff;" parent="206" vertex="1">
                    <mxGeometry x="660" y="10" width="50" height="40" as="geometry"/>
                </mxCell>
                <mxCell id="205" value="" style="whiteSpace=wrap;html=1;shape=mxgraph.basic.oval_callout;fontColor=#FFFFFF;fillColor=#FFFFFF;" parent="206" vertex="1">
                    <mxGeometry x="595" y="15" width="40" height="30" as="geometry"/>
                </mxCell>
                <mxCell id="215" value="" style="group" parent="184" vertex="1" connectable="0">
                    <mxGeometry x="60" y="190" width="210" height="30" as="geometry"/>
                </mxCell>
                <mxCell id="216" value="" style="group" parent="215" vertex="1" connectable="0">
                    <mxGeometry x="-15" width="225" height="30" as="geometry"/>
                </mxCell>
                <mxCell id="214" value="Assignments" style="strokeWidth=1;shadow=0;dashed=0;align=center;html=1;shape=mxgraph.mockup.navigation.anchor;fontSize=17;fontColor=#008cff;fontStyle=1;fillColor=none;" parent="216" vertex="1">
                    <mxGeometry x="125" width="100" height="30" as="geometry"/>
                </mxCell>
                <mxCell id="207" value="Dashboard" style="strokeWidth=1;shadow=0;dashed=0;align=center;html=1;shape=mxgraph.mockup.navigation.anchor;fontSize=17;fontColor=#666666;fontStyle=1;fillColor=none;" parent="216" vertex="1">
                    <mxGeometry width="100" height="30" as="geometry"/>
                </mxCell>
                <mxCell id="208" value="&gt;" style="strokeWidth=1;shadow=0;dashed=0;align=center;html=1;shape=mxgraph.mockup.navigation.anchor;fontSize=24;fontColor=#aaaaaa;fontStyle=1;fillColor=none;" parent="216" vertex="1">
                    <mxGeometry x="100" width="20" height="30" as="geometry"/>
                </mxCell>
                <mxCell id="217" value="" style="strokeWidth=1;shadow=0;dashed=0;align=center;html=1;shape=mxgraph.mockup.forms.rrect;rSize=0;strokeColor=#999999;fillColor=#ffffff;recursiveResize=0;fontColor=#FFFFFF;" parent="184" vertex="1">
                    <mxGeometry x="575" y="300" width="150" height="120" as="geometry"/>
                </mxCell>
                <mxCell id="218" value="Upcoming" style="strokeWidth=1;shadow=0;dashed=0;align=center;html=1;shape=mxgraph.mockup.forms.rrect;rSize=0;fillColor=#eeeeee;strokeColor=#999999;gradientColor=#cccccc;align=left;spacingLeft=4;fontSize=17;fontColor=#666666;labelPosition=right;" parent="217" vertex="1">
                    <mxGeometry x="8" y="7.5" width="15" height="15" as="geometry"/>
                </mxCell>
                <mxCell id="219" value="Archived" style="strokeWidth=1;shadow=0;dashed=0;align=center;html=1;shape=mxgraph.mockup.forms.rrect;rSize=0;fillColor=#eeeeee;strokeColor=#999999;gradientColor=#cccccc;align=left;spacingLeft=4;fontSize=17;fontColor=#666666;labelPosition=right;" parent="217" vertex="1">
                    <mxGeometry x="8" y="37.5" width="15" height="15" as="geometry"/>
                </mxCell>
                <mxCell id="220" value="All" style="strokeWidth=1;shadow=0;dashed=0;align=center;html=1;shape=mxgraph.mockup.forms.checkbox;rSize=0;resizable=0;fillColor=#aaaaaa;strokeColor=#444444;gradientColor=#666666;align=left;spacingLeft=4;fontSize=17;fontColor=#008cff;labelPosition=right;" parent="217" vertex="1">
                    <mxGeometry x="8" y="67.5" width="15" height="15" as="geometry"/>
                </mxCell>
                <mxCell id="221" value="Current" style="strokeWidth=1;shadow=0;dashed=0;align=center;html=1;shape=mxgraph.mockup.forms.rrect;rSize=0;fillColor=#eeeeee;strokeColor=#999999;gradientColor=#cccccc;align=left;spacingLeft=4;fontSize=17;fontColor=#666666;labelPosition=right;" parent="217" vertex="1">
                    <mxGeometry x="8" y="97.5" width="15" height="15" as="geometry"/>
                </mxCell>
                <mxCell id="227" value="" style="html=1;shadow=0;dashed=0;shape=mxgraph.bootstrap.rrect;rSize=5;strokeColor=#DFDFDF;html=1;whiteSpace=wrap;fillColor=#FFFFFF;fontColor=#000000;" parent="184" vertex="1">
                    <mxGeometry x="45" y="240" width="505" height="170" as="geometry"/>
                </mxCell>
                <mxCell id="228" value="Title-1" style="html=1;shadow=0;dashed=0;shape=mxgraph.bootstrap.topButton;strokeColor=inherit;fillColor=#F7F7F7;rSize=5;perimeter=none;whiteSpace=wrap;resizeWidth=1;align=left;spacing=20;fontSize=14;" parent="227" vertex="1">
                    <mxGeometry width="505" height="40" relative="1" as="geometry"/>
                </mxCell>
                <mxCell id="229" value="&lt;b&gt;&lt;font style=&quot;font-size: 20px&quot;&gt;Special title treatment&lt;/font&gt;&lt;/b&gt;&lt;br style=&quot;font-size: 14px&quot;&gt;&lt;br style=&quot;font-size: 14px&quot;&gt;With supporting text below as a natural lead-in to additional content." style="perimeter=none;html=1;whiteSpace=wrap;fillColor=none;strokeColor=none;resizeWidth=1;verticalAlign=top;align=left;spacing=20;spacingTop=-10;fontSize=14;" parent="227" vertex="1">
                    <mxGeometry width="505" height="120" relative="1" as="geometry">
                        <mxPoint y="40" as="offset"/>
                    </mxGeometry>
                </mxCell>
                <mxCell id="230" value="View" style="html=1;shadow=0;dashed=0;shape=mxgraph.bootstrap.rrect;rSize=5;perimeter=none;whiteSpace=wrap;fillColor=#0085FC;strokeColor=none;fontColor=#ffffff;resizeWidth=1;fontSize=14;" parent="227" vertex="1">
                    <mxGeometry y="1" width="135.75" height="40" relative="1" as="geometry">
                        <mxPoint x="310" y="-50" as="offset"/>
                    </mxGeometry>
                </mxCell>
                <mxCell id="231" value="" style="html=1;shadow=0;dashed=0;shape=mxgraph.bootstrap.rrect;rSize=5;strokeColor=#DFDFDF;html=1;whiteSpace=wrap;fillColor=#FFFFFF;fontColor=#000000;" parent="184" vertex="1">
                    <mxGeometry x="45" y="440" width="505" height="170" as="geometry"/>
                </mxCell>
                <mxCell id="232" value="Title-1" style="html=1;shadow=0;dashed=0;shape=mxgraph.bootstrap.topButton;strokeColor=inherit;fillColor=#F7F7F7;rSize=5;perimeter=none;whiteSpace=wrap;resizeWidth=1;align=left;spacing=20;fontSize=14;" parent="231" vertex="1">
                    <mxGeometry width="505" height="40" relative="1" as="geometry"/>
                </mxCell>
                <mxCell id="233" value="&lt;b&gt;&lt;font style=&quot;font-size: 20px&quot;&gt;Special title treatment&lt;/font&gt;&lt;/b&gt;&lt;br style=&quot;font-size: 14px&quot;&gt;&lt;br style=&quot;font-size: 14px&quot;&gt;With supporting text below as a natural lead-in to additional content." style="perimeter=none;html=1;whiteSpace=wrap;fillColor=none;strokeColor=none;resizeWidth=1;verticalAlign=top;align=left;spacing=20;spacingTop=-10;fontSize=14;" parent="231" vertex="1">
                    <mxGeometry width="505" height="120" relative="1" as="geometry">
                        <mxPoint y="40" as="offset"/>
                    </mxGeometry>
                </mxCell>
                <mxCell id="235" value="View" style="html=1;shadow=0;dashed=0;shape=mxgraph.bootstrap.rrect;rSize=5;strokeColor=#0085FC;strokeWidth=1;fillColor=none;fontColor=#0085FC;whiteSpace=wrap;align=center;verticalAlign=middle;spacingLeft=0;fontStyle=0;fontSize=16;spacing=5;" parent="231" vertex="1">
                    <mxGeometry x="310" y="120" width="140" height="40" as="geometry"/>
                </mxCell>
                <mxCell id="236" value="" style="html=1;shadow=0;dashed=0;shape=mxgraph.bootstrap.rrect;rSize=5;strokeColor=#DFDFDF;html=1;whiteSpace=wrap;fillColor=#FFFFFF;fontColor=#000000;" parent="184" vertex="1">
                    <mxGeometry x="45" y="630" width="505" height="170" as="geometry"/>
                </mxCell>
                <mxCell id="237" value="Title-1" style="html=1;shadow=0;dashed=0;shape=mxgraph.bootstrap.topButton;strokeColor=inherit;fillColor=#F7F7F7;rSize=5;perimeter=none;whiteSpace=wrap;resizeWidth=1;align=left;spacing=20;fontSize=14;" parent="236" vertex="1">
                    <mxGeometry width="505" height="40" relative="1" as="geometry"/>
                </mxCell>
                <mxCell id="238" value="&lt;b&gt;&lt;font style=&quot;font-size: 20px&quot;&gt;Special title treatment&lt;/font&gt;&lt;/b&gt;&lt;br style=&quot;font-size: 14px&quot;&gt;&lt;br style=&quot;font-size: 14px&quot;&gt;With supporting text below as a natural lead-in to additional content." style="perimeter=none;html=1;whiteSpace=wrap;fillColor=none;strokeColor=none;resizeWidth=1;verticalAlign=top;align=left;spacing=20;spacingTop=-10;fontSize=14;" parent="236" vertex="1">
                    <mxGeometry width="505" height="120" relative="1" as="geometry">
                        <mxPoint y="40" as="offset"/>
                    </mxGeometry>
                </mxCell>
                <mxCell id="239" value="View" style="html=1;shadow=0;dashed=0;shape=mxgraph.bootstrap.rrect;rSize=5;strokeColor=#0085FC;strokeWidth=1;fillColor=none;fontColor=#0085FC;whiteSpace=wrap;align=center;verticalAlign=middle;spacingLeft=0;fontStyle=0;fontSize=16;spacing=5;" parent="236" vertex="1">
                    <mxGeometry x="310" y="120" width="140" height="40" as="geometry"/>
                </mxCell>
                <mxCell id="240" value="" style="html=1;shadow=0;dashed=0;shape=mxgraph.bootstrap.rrect;rSize=5;strokeColor=#DFDFDF;html=1;whiteSpace=wrap;fillColor=#FFFFFF;fontColor=#000000;" parent="184" vertex="1">
                    <mxGeometry x="45" y="820" width="505" height="170" as="geometry"/>
                </mxCell>
                <mxCell id="241" value="Title-1" style="html=1;shadow=0;dashed=0;shape=mxgraph.bootstrap.topButton;strokeColor=inherit;fillColor=#F7F7F7;rSize=5;perimeter=none;whiteSpace=wrap;resizeWidth=1;align=left;spacing=20;fontSize=14;" parent="240" vertex="1">
                    <mxGeometry width="505" height="40" relative="1" as="geometry"/>
                </mxCell>
                <mxCell id="242" value="&lt;b&gt;&lt;font style=&quot;font-size: 20px&quot;&gt;Special title treatment&lt;/font&gt;&lt;/b&gt;&lt;br style=&quot;font-size: 14px&quot;&gt;&lt;br style=&quot;font-size: 14px&quot;&gt;With supporting text below as a natural lead-in to additional content." style="perimeter=none;html=1;whiteSpace=wrap;fillColor=none;strokeColor=none;resizeWidth=1;verticalAlign=top;align=left;spacing=20;spacingTop=-10;fontSize=14;" parent="240" vertex="1">
                    <mxGeometry width="505" height="120" relative="1" as="geometry">
                        <mxPoint y="40" as="offset"/>
                    </mxGeometry>
                </mxCell>
                <mxCell id="243" value="View" style="html=1;shadow=0;dashed=0;shape=mxgraph.bootstrap.rrect;rSize=5;strokeColor=#0085FC;strokeWidth=1;fillColor=none;fontColor=#0085FC;whiteSpace=wrap;align=center;verticalAlign=middle;spacingLeft=0;fontStyle=0;fontSize=16;spacing=5;" parent="240" vertex="1">
                    <mxGeometry x="310" y="120" width="140" height="40" as="geometry"/>
                </mxCell>
                <mxCell id="924" value="&lt;font style=&quot;font-size: 12px&quot;&gt;Add New Assignment&lt;/font&gt;" style="html=1;shadow=0;dashed=0;shape=mxgraph.bootstrap.rrect;rSize=5;strokeColor=none;strokeWidth=1;fillColor=#0085FC;fontColor=#FFFFFF;whiteSpace=wrap;align=center;verticalAlign=middle;spacingLeft=0;fontStyle=0;fontSize=16;spacing=5;" vertex="1" parent="184">
                    <mxGeometry x="575" y="240" width="155" height="40" as="geometry"/>
                </mxCell>
                <mxCell id="201" style="edgeStyle=orthogonalEdgeStyle;rounded=0;orthogonalLoop=1;jettySize=auto;html=1;entryX=0.245;entryY=-0.005;entryDx=0;entryDy=0;entryPerimeter=0;fontColor=#FFFFFF;" parent="1" source="23" target="184" edge="1">
                    <mxGeometry relative="1" as="geometry"/>
                </mxCell>
                <mxCell id="244" value="" style="strokeWidth=1;shadow=0;dashed=0;align=center;html=1;shape=mxgraph.mockup.containers.browserWindow;rSize=0;strokeColor=#666666;strokeColor2=#008cff;strokeColor3=#c4c4c4;mainText=,;recursiveResize=0;" parent="1" vertex="1">
                    <mxGeometry x="-590" y="2040" width="750" height="730" as="geometry"/>
                </mxCell>
                <mxCell id="245" value="Assignmentscode-grade" style="strokeWidth=1;shadow=0;dashed=0;align=center;html=1;shape=mxgraph.mockup.containers.anchor;fontSize=17;fontColor=#666666;align=left;" parent="244" vertex="1">
                    <mxGeometry x="60" y="12" width="110" height="26" as="geometry"/>
                </mxCell>
                <mxCell id="246" value="https://www.code-grade.io/student/assignment/:id" style="strokeWidth=1;shadow=0;dashed=0;align=center;html=1;shape=mxgraph.mockup.containers.anchor;rSize=0;fontSize=17;fontColor=#666666;align=left;" parent="244" vertex="1">
                    <mxGeometry x="130" y="60" width="250" height="26" as="geometry"/>
                </mxCell>
                <mxCell id="247" value="" style="group" parent="244" vertex="1" connectable="0">
                    <mxGeometry y="110" width="750" height="60" as="geometry"/>
                </mxCell>
                <mxCell id="248" value="Code-grade" style="html=1;shadow=0;dashed=0;fillColor=#0085FC;strokeColor=none;fontSize=16;fontColor=#ffffff;align=left;spacing=15;" parent="247" vertex="1">
                    <mxGeometry width="750" height="60" as="geometry"/>
                </mxCell>
                <mxCell id="249" value="Home" style="fillColor=none;strokeColor=none;fontSize=14;align=center;fontStyle=1;fontColor=#79BFFD;" parent="248" vertex="1">
                    <mxGeometry width="70" height="40" relative="1" as="geometry">
                        <mxPoint x="140" y="10" as="offset"/>
                    </mxGeometry>
                </mxCell>
                <mxCell id="250" value="Questions" style="fillColor=none;strokeColor=none;fontSize=14;align=center;spacingRight=0;fontColor=#FFFFFF;fontStyle=1" parent="248" vertex="1">
                    <mxGeometry width="80" height="40" relative="1" as="geometry">
                        <mxPoint x="310" y="10" as="offset"/>
                    </mxGeometry>
                </mxCell>
                <mxCell id="251" value="Assignments" style="fillColor=none;strokeColor=none;fontSize=14;fontColor=#79BFFD;align=center;" parent="248" vertex="1">
                    <mxGeometry width="80" height="40" relative="1" as="geometry">
                        <mxPoint x="210" y="10" as="offset"/>
                    </mxGeometry>
                </mxCell>
                <mxCell id="252" value="" style="verticalLabelPosition=bottom;shadow=0;dashed=0;align=center;html=1;verticalAlign=top;strokeWidth=1;shape=mxgraph.mockup.containers.userMale;strokeColor2=#008cff;" parent="247" vertex="1">
                    <mxGeometry x="660" y="10" width="50" height="40" as="geometry"/>
                </mxCell>
                <mxCell id="253" value="" style="whiteSpace=wrap;html=1;shape=mxgraph.basic.oval_callout;fontColor=#FFFFFF;fillColor=#FFFFFF;" parent="247" vertex="1">
                    <mxGeometry x="595" y="15" width="40" height="30" as="geometry"/>
                </mxCell>
                <mxCell id="254" value="" style="group" parent="244" vertex="1" connectable="0">
                    <mxGeometry x="60" y="190" width="225" height="30" as="geometry"/>
                </mxCell>
                <mxCell id="255" value="" style="group" parent="254" vertex="1" connectable="0">
                    <mxGeometry x="-15" width="240" height="30" as="geometry"/>
                </mxCell>
                <mxCell id="257" value="Dashboard" style="strokeWidth=1;shadow=0;dashed=0;align=center;html=1;shape=mxgraph.mockup.navigation.anchor;fontSize=17;fontColor=#666666;fontStyle=1;fillColor=none;" parent="255" vertex="1">
                    <mxGeometry width="100" height="30" as="geometry"/>
                </mxCell>
                <mxCell id="258" value="&gt;" style="strokeWidth=1;shadow=0;dashed=0;align=center;html=1;shape=mxgraph.mockup.navigation.anchor;fontSize=24;fontColor=#aaaaaa;fontStyle=1;fillColor=none;" parent="255" vertex="1">
                    <mxGeometry x="100" width="20" height="30" as="geometry"/>
                </mxCell>
                <mxCell id="281" value="Question" style="strokeWidth=1;shadow=0;dashed=0;align=center;html=1;shape=mxgraph.mockup.navigation.anchor;fontSize=17;fontColor=#666666;fontStyle=1;fillColor=none;" parent="255" vertex="1">
                    <mxGeometry x="120" width="100" height="30" as="geometry"/>
                </mxCell>
                <mxCell id="282" value="&gt;" style="strokeWidth=1;shadow=0;dashed=0;align=center;html=1;shape=mxgraph.mockup.navigation.anchor;fontSize=24;fontColor=#aaaaaa;fontStyle=1;fillColor=none;" parent="255" vertex="1">
                    <mxGeometry x="220" width="20" height="30" as="geometry"/>
                </mxCell>
                <mxCell id="256" value="Question-x" style="strokeWidth=1;shadow=0;dashed=0;align=center;html=1;shape=mxgraph.mockup.navigation.anchor;fontSize=17;fontColor=#008cff;fontStyle=1;fillColor=none;" parent="244" vertex="1">
                    <mxGeometry x="290" y="190" width="110" height="30" as="geometry"/>
                </mxCell>
                <mxCell id="283" value="" style="html=1;shadow=0;dashed=0;shape=mxgraph.bootstrap.rrect;rSize=5;strokeColor=#DFDFDF;html=1;whiteSpace=wrap;fillColor=#FFFFFF;fontColor=#495057;" parent="244" vertex="1">
                    <mxGeometry x="480" y="240" width="250" height="280" as="geometry"/>
                </mxCell>
                <mxCell id="284" value="&lt;font style=&quot;font-size: 16px&quot;&gt;List group item heading&lt;/font&gt;&lt;br&gt;&lt;br&gt;Donec id elit non mi porta gravida at eget metus. Maecenas sed diam eget risus varius blandit.&lt;br&gt;&lt;font style=&quot;font-size: 11px&quot;&gt;Donec id elit mi porta.&lt;/font&gt;" style="html=1;shadow=0;dashed=0;shape=mxgraph.bootstrap.topButton;rSize=5;perimeter=none;whiteSpace=wrap;resizeWidth=1;align=left;spacing=10;verticalAlign=top;fillColor=#0085FC;strokeColor=#0085FC;fontColor=#ffffff;" parent="283" vertex="1">
                    <mxGeometry width="250" height="100" relative="1" as="geometry"/>
                </mxCell>
                <mxCell id="285" value="3 days ago" style="strokeColor=none;fillColor=none;fontColor=#ffffff;fontSize=11;" parent="284" vertex="1">
                    <mxGeometry x="1" width="90" height="40" relative="1" as="geometry">
                        <mxPoint x="-90" as="offset"/>
                    </mxGeometry>
                </mxCell>
                <mxCell id="286" value="&lt;font style=&quot;font-size: 16px&quot;&gt;List group item heading&lt;/font&gt;&lt;br&gt;&lt;br&gt;Donec id elit non mi porta gravida at eget metus. Maecenas sed diam eget risus varius blandit.&lt;br&gt;&lt;font style=&quot;font-size: 11px&quot;&gt;Donec id elit mi porta.&lt;/font&gt;" style="strokeColor=inherit;fillColor=inherit;gradientColor=inherit;fontColor=inherit;html=1;shadow=0;dashed=0;perimeter=none;whiteSpace=wrap;resizeWidth=1;align=left;spacing=10;" parent="283" vertex="1">
                    <mxGeometry width="250" height="100" relative="1" as="geometry">
                        <mxPoint y="100" as="offset"/>
                    </mxGeometry>
                </mxCell>
                <mxCell id="287" value="3 days ago" style="strokeColor=none;fillColor=none;fontColor=#6C767D;fontSize=11;" parent="286" vertex="1">
                    <mxGeometry x="1" width="90" height="40" relative="1" as="geometry">
                        <mxPoint x="-90" as="offset"/>
                    </mxGeometry>
                </mxCell>
                <mxCell id="288" value="&lt;font style=&quot;font-size: 16px&quot;&gt;List group item heading&lt;/font&gt;&lt;br&gt;&lt;br&gt;Donec id elit non mi porta gravida at eget metus. Maecenas sed diam eget risus varius blandit.&lt;br&gt;&lt;font style=&quot;font-size: 11px&quot;&gt;Donec id elit mi porta.&lt;/font&gt;" style="strokeColor=inherit;fillColor=inherit;gradientColor=inherit;fontColor=inherit;html=1;shadow=0;dashed=0;shape=mxgraph.bootstrap.bottomButton;rSize=5;perimeter=none;whiteSpace=wrap;resizeWidth=1;resizeHeight=0;align=left;spacing=10;" parent="283" vertex="1">
                    <mxGeometry y="1" width="250" height="100" relative="1" as="geometry">
                        <mxPoint y="-100" as="offset"/>
                    </mxGeometry>
                </mxCell>
                <mxCell id="289" value="3 days ago" style="strokeColor=none;fillColor=none;fontColor=#6C767D;fontSize=11;" parent="288" vertex="1">
                    <mxGeometry x="1" width="90" height="40" relative="1" as="geometry">
                        <mxPoint x="-90" as="offset"/>
                    </mxGeometry>
                </mxCell>
                <mxCell id="316" value="" style="group" parent="244" vertex="1" connectable="0">
                    <mxGeometry x="50" y="240" width="305" height="30" as="geometry"/>
                </mxCell>
                <mxCell id="315" value="" style="group" parent="316" vertex="1" connectable="0">
                    <mxGeometry width="230" height="30" as="geometry"/>
                </mxCell>
                <mxCell id="313" value="Problem" style="strokeWidth=1;shadow=0;dashed=0;align=center;html=1;shape=mxgraph.mockup.forms.uRect;fontSize=17;fontColor=#ffffff;align=left;spacingLeft=5;strokeColor=#008cff;fillColor=#008cff;" parent="315" vertex="1">
                    <mxGeometry width="90" height="30" as="geometry"/>
                </mxCell>
                <mxCell id="314" value="Solution" style="strokeWidth=1;shadow=0;dashed=0;align=center;html=1;shape=mxgraph.mockup.forms.uRect;fontSize=17;fontColor=#666666;align=left;spacingLeft=5;strokeColor=#666666;fillColor=none;" parent="316" vertex="1">
                    <mxGeometry x="220" width="85" height="30" as="geometry"/>
                </mxCell>
                <mxCell id="312" value="Submissions" style="strokeWidth=1;shadow=0;dashed=0;align=center;html=1;shape=mxgraph.mockup.forms.uRect;fontSize=17;fontColor=#666666;align=left;spacingLeft=5;strokeColor=#666666;fillColor=none;" parent="316" vertex="1">
                    <mxGeometry x="106" width="100" height="30" as="geometry"/>
                </mxCell>
                <mxCell id="317" value="" style="whiteSpace=wrap;html=1;aspect=fixed;fontColor=#FFFFFF;fillColor=none;" parent="244" vertex="1">
                    <mxGeometry x="50" y="270" width="400" height="400" as="geometry"/>
                </mxCell>
                <mxCell id="919" value="Edit" style="html=1;shadow=0;dashed=0;shape=mxgraph.bootstrap.rrect;rSize=5;strokeColor=none;strokeWidth=1;fillColor=#6C767D;fontColor=#FFFFFF;whiteSpace=wrap;align=center;verticalAlign=middle;spacingLeft=0;fontStyle=0;fontSize=16;spacing=5;" vertex="1" parent="244">
                    <mxGeometry x="480" y="540" width="250" height="50" as="geometry"/>
                </mxCell>
                <mxCell id="922" value="Delete" style="html=1;shadow=0;dashed=0;shape=mxgraph.bootstrap.rrect;rSize=5;strokeColor=none;strokeWidth=1;fillColor=#DB2843;fontColor=#FFFFFF;whiteSpace=wrap;align=center;verticalAlign=middle;spacingLeft=0;fontStyle=0;fontSize=16;spacing=5;" vertex="1" parent="244">
                    <mxGeometry x="480" y="600" width="250" height="50" as="geometry"/>
                </mxCell>
                <mxCell id="370" value="" style="strokeWidth=1;shadow=0;dashed=0;align=center;html=1;shape=mxgraph.mockup.containers.browserWindow;rSize=0;strokeColor=#666666;strokeColor2=#008cff;strokeColor3=#c4c4c4;mainText=,;recursiveResize=0;" parent="1" vertex="1">
                    <mxGeometry x="1700" y="890" width="750" height="990" as="geometry"/>
                </mxCell>
                <mxCell id="381" value="Assignmentscode-grade" style="strokeWidth=1;shadow=0;dashed=0;align=center;html=1;shape=mxgraph.mockup.containers.anchor;fontSize=17;fontColor=#666666;align=left;" parent="370" vertex="1">
                    <mxGeometry x="60" y="12" width="110" height="26" as="geometry"/>
                </mxCell>
                <mxCell id="382" value="https://www.code-grade.io/student/assignment/:id" style="strokeWidth=1;shadow=0;dashed=0;align=center;html=1;shape=mxgraph.mockup.containers.anchor;rSize=0;fontSize=17;fontColor=#666666;align=left;" parent="370" vertex="1">
                    <mxGeometry x="130" y="60" width="250" height="26" as="geometry"/>
                </mxCell>
                <mxCell id="383" value="" style="group" parent="370" vertex="1" connectable="0">
                    <mxGeometry y="110" width="750" height="60" as="geometry"/>
                </mxCell>
                <mxCell id="384" value="Code-grade" style="html=1;shadow=0;dashed=0;fillColor=#0085FC;strokeColor=none;fontSize=16;fontColor=#ffffff;align=left;spacing=15;" parent="383" vertex="1">
                    <mxGeometry width="750" height="60" as="geometry"/>
                </mxCell>
                <mxCell id="385" value="Home" style="fillColor=none;strokeColor=none;fontSize=14;align=center;fontStyle=1;fontColor=#79BFFD;" parent="384" vertex="1">
                    <mxGeometry width="70" height="40" relative="1" as="geometry">
                        <mxPoint x="140" y="10" as="offset"/>
                    </mxGeometry>
                </mxCell>
                <mxCell id="386" value="Assignments" style="fillColor=none;strokeColor=none;fontSize=14;align=center;spacingRight=0;fontColor=#FFFFFF;fontStyle=1" parent="384" vertex="1">
                    <mxGeometry width="80" height="40" relative="1" as="geometry">
                        <mxPoint x="210" y="10" as="offset"/>
                    </mxGeometry>
                </mxCell>
                <mxCell id="387" value="My Attempts" style="fillColor=none;strokeColor=none;fontSize=14;fontColor=#79BFFD;align=center;" parent="384" vertex="1">
                    <mxGeometry width="80" height="40" relative="1" as="geometry">
                        <mxPoint x="300" y="10" as="offset"/>
                    </mxGeometry>
                </mxCell>
                <mxCell id="388" value="" style="verticalLabelPosition=bottom;shadow=0;dashed=0;align=center;html=1;verticalAlign=top;strokeWidth=1;shape=mxgraph.mockup.containers.userMale;strokeColor2=#008cff;" parent="383" vertex="1">
                    <mxGeometry x="660" y="10" width="50" height="40" as="geometry"/>
                </mxCell>
                <mxCell id="389" value="" style="whiteSpace=wrap;html=1;shape=mxgraph.basic.oval_callout;fontColor=#FFFFFF;fillColor=#FFFFFF;" parent="383" vertex="1">
                    <mxGeometry x="595" y="15" width="40" height="30" as="geometry"/>
                </mxCell>
                <mxCell id="390" value="" style="group" parent="370" vertex="1" connectable="0">
                    <mxGeometry x="60" y="190" width="225" height="30" as="geometry"/>
                </mxCell>
                <mxCell id="391" value="" style="group" parent="390" vertex="1" connectable="0">
                    <mxGeometry x="-15" width="240" height="30" as="geometry"/>
                </mxCell>
                <mxCell id="392" value="Dashboard" style="strokeWidth=1;shadow=0;dashed=0;align=center;html=1;shape=mxgraph.mockup.navigation.anchor;fontSize=17;fontColor=#666666;fontStyle=1;fillColor=none;" parent="391" vertex="1">
                    <mxGeometry width="100" height="30" as="geometry"/>
                </mxCell>
                <mxCell id="393" value="&gt;" style="strokeWidth=1;shadow=0;dashed=0;align=center;html=1;shape=mxgraph.mockup.navigation.anchor;fontSize=24;fontColor=#aaaaaa;fontStyle=1;fillColor=none;" parent="391" vertex="1">
                    <mxGeometry x="100" width="20" height="30" as="geometry"/>
                </mxCell>
                <mxCell id="394" value="Assignment" style="strokeWidth=1;shadow=0;dashed=0;align=center;html=1;shape=mxgraph.mockup.navigation.anchor;fontSize=17;fontColor=#666666;fontStyle=1;fillColor=none;" parent="391" vertex="1">
                    <mxGeometry x="120" width="100" height="30" as="geometry"/>
                </mxCell>
                <mxCell id="395" value="&gt;" style="strokeWidth=1;shadow=0;dashed=0;align=center;html=1;shape=mxgraph.mockup.navigation.anchor;fontSize=24;fontColor=#aaaaaa;fontStyle=1;fillColor=none;" parent="391" vertex="1">
                    <mxGeometry x="220" width="20" height="30" as="geometry"/>
                </mxCell>
                <mxCell id="396" value="Binary search" style="strokeWidth=1;shadow=0;dashed=0;align=center;html=1;shape=mxgraph.mockup.navigation.anchor;fontSize=17;fontColor=#008cff;fontStyle=1;fillColor=none;" parent="370" vertex="1">
                    <mxGeometry x="290" y="190" width="110" height="30" as="geometry"/>
                </mxCell>
                <mxCell id="397" value="" style="html=1;shadow=0;dashed=0;shape=mxgraph.bootstrap.rrect;rSize=5;strokeColor=#DFDFDF;html=1;whiteSpace=wrap;fillColor=#FFFFFF;fontColor=#495057;" parent="370" vertex="1">
                    <mxGeometry x="480" y="240" width="250" height="280" as="geometry"/>
                </mxCell>
                <mxCell id="398" value="&lt;font style=&quot;font-size: 16px&quot;&gt;List group item heading&lt;/font&gt;&lt;br&gt;&lt;br&gt;Donec id elit non mi porta gravida at eget metus. Maecenas sed diam eget risus varius blandit.&lt;br&gt;&lt;font style=&quot;font-size: 11px&quot;&gt;Donec id elit mi porta.&lt;/font&gt;" style="html=1;shadow=0;dashed=0;shape=mxgraph.bootstrap.topButton;rSize=5;perimeter=none;whiteSpace=wrap;resizeWidth=1;align=left;spacing=10;verticalAlign=top;fillColor=#0085FC;strokeColor=#0085FC;fontColor=#ffffff;" parent="397" vertex="1">
                    <mxGeometry width="250" height="100" relative="1" as="geometry"/>
                </mxCell>
                <mxCell id="399" value="3 days ago" style="strokeColor=none;fillColor=none;fontColor=#ffffff;fontSize=11;" parent="398" vertex="1">
                    <mxGeometry x="1" width="90" height="40" relative="1" as="geometry">
                        <mxPoint x="-90" as="offset"/>
                    </mxGeometry>
                </mxCell>
                <mxCell id="400" value="&lt;font style=&quot;font-size: 16px&quot;&gt;List group item heading&lt;/font&gt;&lt;br&gt;&lt;br&gt;Donec id elit non mi porta gravida at eget metus. Maecenas sed diam eget risus varius blandit.&lt;br&gt;&lt;font style=&quot;font-size: 11px&quot;&gt;Donec id elit mi porta.&lt;/font&gt;" style="strokeColor=inherit;fillColor=inherit;gradientColor=inherit;fontColor=inherit;html=1;shadow=0;dashed=0;perimeter=none;whiteSpace=wrap;resizeWidth=1;align=left;spacing=10;" parent="397" vertex="1">
                    <mxGeometry width="250" height="100" relative="1" as="geometry">
                        <mxPoint y="100" as="offset"/>
                    </mxGeometry>
                </mxCell>
                <mxCell id="401" value="3 days ago" style="strokeColor=none;fillColor=none;fontColor=#6C767D;fontSize=11;" parent="400" vertex="1">
                    <mxGeometry x="1" width="90" height="40" relative="1" as="geometry">
                        <mxPoint x="-90" as="offset"/>
                    </mxGeometry>
                </mxCell>
                <mxCell id="402" value="&lt;font style=&quot;font-size: 16px&quot;&gt;List group item heading&lt;/font&gt;&lt;br&gt;&lt;br&gt;Donec id elit non mi porta gravida at eget metus. Maecenas sed diam eget risus varius blandit.&lt;br&gt;&lt;font style=&quot;font-size: 11px&quot;&gt;Donec id elit mi porta.&lt;/font&gt;" style="strokeColor=inherit;fillColor=inherit;gradientColor=inherit;fontColor=inherit;html=1;shadow=0;dashed=0;shape=mxgraph.bootstrap.bottomButton;rSize=5;perimeter=none;whiteSpace=wrap;resizeWidth=1;resizeHeight=0;align=left;spacing=10;" parent="397" vertex="1">
                    <mxGeometry y="1" width="250" height="100" relative="1" as="geometry">
                        <mxPoint y="-100" as="offset"/>
                    </mxGeometry>
                </mxCell>
                <mxCell id="403" value="3 days ago" style="strokeColor=none;fillColor=none;fontColor=#6C767D;fontSize=11;" parent="402" vertex="1">
                    <mxGeometry x="1" width="90" height="40" relative="1" as="geometry">
                        <mxPoint x="-90" as="offset"/>
                    </mxGeometry>
                </mxCell>
                <mxCell id="404" value="" style="html=1;shadow=0;dashed=0;shape=mxgraph.bootstrap.rrect;rSize=5;strokeColor=#DFDFDF;html=1;whiteSpace=wrap;fillColor=#FFFFFF;fontColor=#000000;" parent="370" vertex="1">
                    <mxGeometry x="480" y="540" width="250" height="120" as="geometry"/>
                </mxCell>
                <mxCell id="405" value="Cras justo odio" style="strokeColor=inherit;fillColor=inherit;gradientColor=inherit;fontColor=inherit;html=1;shadow=0;dashed=0;shape=mxgraph.bootstrap.topButton;rSize=5;perimeter=none;whiteSpace=wrap;resizeWidth=1;align=left;spacing=10;" parent="404" vertex="1">
                    <mxGeometry width="250" height="40" relative="1" as="geometry"/>
                </mxCell>
                <mxCell id="406" value="14" style="strokeColor=inherit;fillColor=inherit;gradientColor=inherit;fontColor=inherit;html=1;shadow=0;dashed=0;shape=mxgraph.bootstrap.rrect;rSize=8;fillColor=#0085FC;strokeColor=none;fontColor=#ffffff;whiteSpace=wrap;" parent="405" vertex="1">
                    <mxGeometry x="1" y="0.5" width="25" height="16" relative="1" as="geometry">
                        <mxPoint x="-40" y="-8" as="offset"/>
                    </mxGeometry>
                </mxCell>
                <mxCell id="407" value="Dapibus ac facilisis in" style="strokeColor=inherit;fillColor=inherit;gradientColor=inherit;fontColor=inherit;html=1;shadow=0;dashed=0;perimeter=none;whiteSpace=wrap;resizeWidth=1;align=left;spacing=10;" parent="404" vertex="1">
                    <mxGeometry width="250" height="40" relative="1" as="geometry">
                        <mxPoint y="40" as="offset"/>
                    </mxGeometry>
                </mxCell>
                <mxCell id="408" value="2" style="strokeColor=inherit;fillColor=inherit;gradientColor=inherit;fontColor=inherit;html=1;shadow=0;dashed=0;shape=mxgraph.bootstrap.rrect;rSize=8;fillColor=#0085FC;strokeColor=none;fontColor=#ffffff;whiteSpace=wrap;" parent="407" vertex="1">
                    <mxGeometry x="1" y="0.5" width="20" height="16" relative="1" as="geometry">
                        <mxPoint x="-38" y="-8" as="offset"/>
                    </mxGeometry>
                </mxCell>
                <mxCell id="409" value="Morbi leo risus" style="strokeColor=inherit;fillColor=inherit;gradientColor=inherit;fontColor=inherit;html=1;shadow=0;dashed=0;shape=mxgraph.bootstrap.bottomButton;rSize=5;perimeter=none;whiteSpace=wrap;resizeWidth=1;resizeHeight=0;align=left;spacing=10;" parent="404" vertex="1">
                    <mxGeometry y="1" width="250" height="40" relative="1" as="geometry">
                        <mxPoint y="-40" as="offset"/>
                    </mxGeometry>
                </mxCell>
                <mxCell id="410" value="1" style="strokeColor=inherit;fillColor=inherit;gradientColor=inherit;fontColor=inherit;html=1;shadow=0;dashed=0;shape=mxgraph.bootstrap.rrect;rSize=8;fillColor=#0085FC;strokeColor=none;fontColor=#ffffff;whiteSpace=wrap;" parent="409" vertex="1">
                    <mxGeometry x="1" y="0.5" width="20" height="16" relative="1" as="geometry">
                        <mxPoint x="-38" y="-8" as="offset"/>
                    </mxGeometry>
                </mxCell>
                <mxCell id="411" value="" style="group" parent="370" vertex="1" connectable="0">
                    <mxGeometry x="50" y="240" width="305" height="30" as="geometry"/>
                </mxCell>
                <mxCell id="415" value="Problem" style="strokeWidth=1;shadow=0;dashed=0;align=center;html=1;shape=mxgraph.mockup.forms.uRect;fontSize=17;fontColor=#666666;align=left;spacingLeft=5;strokeColor=#666666;fillColor=none;" parent="411" vertex="1">
                    <mxGeometry width="100" height="30" as="geometry"/>
                </mxCell>
                <mxCell id="416" value="" style="whiteSpace=wrap;html=1;aspect=fixed;fontColor=#FFFFFF;fillColor=none;" parent="370" vertex="1">
                    <mxGeometry x="50" y="270" width="400" height="400" as="geometry"/>
                </mxCell>
                <mxCell id="413" value="Submission" style="strokeWidth=1;shadow=0;dashed=0;align=center;html=1;shape=mxgraph.mockup.forms.uRect;fontSize=17;fontColor=#ffffff;align=left;spacingLeft=5;strokeColor=#008cff;fillColor=#008cff;" parent="370" vertex="1">
                    <mxGeometry x="170" y="240" width="100" height="30" as="geometry"/>
                </mxCell>
                <mxCell id="414" value="Solution" style="strokeWidth=1;shadow=0;dashed=0;align=center;html=1;shape=mxgraph.mockup.forms.uRect;fontSize=17;fontColor=#666666;align=left;spacingLeft=5;strokeColor=#666666;fillColor=none;" parent="370" vertex="1">
                    <mxGeometry x="290" y="240" width="85" height="30" as="geometry"/>
                </mxCell>
                <mxCell id="467" style="edgeStyle=orthogonalEdgeStyle;rounded=0;orthogonalLoop=1;jettySize=auto;html=1;" parent="1" source="27" target="439" edge="1">
                    <mxGeometry relative="1" as="geometry"/>
                </mxCell>
                <mxCell id="468" value="" style="group" parent="1" vertex="1" connectable="0">
                    <mxGeometry x="900" y="40" width="750" height="780" as="geometry"/>
                </mxCell>
                <mxCell id="439" value="" style="strokeWidth=1;shadow=0;dashed=0;align=center;html=1;shape=mxgraph.mockup.containers.browserWindow;rSize=0;strokeColor=#666666;strokeColor2=#008cff;strokeColor3=#c4c4c4;mainText=,;recursiveResize=0;" parent="468" vertex="1">
                    <mxGeometry width="750" height="780" as="geometry"/>
                </mxCell>
                <mxCell id="440" value="Student|code-grade" style="strokeWidth=1;shadow=0;dashed=0;align=center;html=1;shape=mxgraph.mockup.containers.anchor;fontSize=17;fontColor=#666666;align=left;" parent="439" vertex="1">
                    <mxGeometry x="60" y="12" width="110" height="26" as="geometry"/>
                </mxCell>
                <mxCell id="441" value="https://www.code-grade.io/student" style="strokeWidth=1;shadow=0;dashed=0;align=center;html=1;shape=mxgraph.mockup.containers.anchor;rSize=0;fontSize=17;fontColor=#666666;align=left;" parent="439" vertex="1">
                    <mxGeometry x="130" y="60" width="250" height="26" as="geometry"/>
                </mxCell>
                <mxCell id="442" value="Code-grade" style="html=1;shadow=0;dashed=0;fillColor=#0085FC;strokeColor=none;fontSize=16;fontColor=#ffffff;align=left;spacing=15;" parent="439" vertex="1">
                    <mxGeometry y="110" width="750" height="60" as="geometry"/>
                </mxCell>
                <mxCell id="443" value="Home" style="fillColor=none;strokeColor=none;fontSize=14;align=center;fontColor=#FFFFFF;" parent="442" vertex="1">
                    <mxGeometry width="70" height="40" relative="1" as="geometry">
                        <mxPoint x="140" y="10" as="offset"/>
                    </mxGeometry>
                </mxCell>
                <mxCell id="444" value="Assignments" style="fillColor=none;strokeColor=none;fontSize=14;fontColor=#79BFFD;align=center;spacingRight=0;" parent="442" vertex="1">
                    <mxGeometry width="80" height="40" relative="1" as="geometry">
                        <mxPoint x="210" y="10" as="offset"/>
                    </mxGeometry>
                </mxCell>
                <mxCell id="445" value="My Attempts" style="fillColor=none;strokeColor=none;fontSize=14;fontColor=#79BFFD;align=center;" parent="442" vertex="1">
                    <mxGeometry width="80" height="40" relative="1" as="geometry">
                        <mxPoint x="300" y="10" as="offset"/>
                    </mxGeometry>
                </mxCell>
                <mxCell id="446" value="" style="verticalLabelPosition=bottom;shadow=0;dashed=0;align=center;html=1;verticalAlign=top;strokeWidth=1;shape=mxgraph.mockup.graphics.simpleIcon;strokeColor=#999999;fillColor=#ffffff;fontColor=#FFFFFF;" parent="439" vertex="1">
                    <mxGeometry x="50" y="300" width="50" height="50" as="geometry"/>
                </mxCell>
                <mxCell id="447" value="" style="verticalLabelPosition=bottom;shadow=0;dashed=0;align=center;html=1;verticalAlign=top;strokeWidth=1;shape=mxgraph.mockup.graphics.simpleIcon;strokeColor=#999999;fillColor=#ffffff;fontColor=#FFFFFF;" parent="439" vertex="1">
                    <mxGeometry x="125" y="300" width="50" height="50" as="geometry"/>
                </mxCell>
                <mxCell id="448" value="" style="verticalLabelPosition=bottom;shadow=0;dashed=0;align=center;html=1;verticalAlign=top;strokeWidth=1;shape=mxgraph.mockup.graphics.simpleIcon;strokeColor=#999999;fillColor=#ffffff;fontColor=#FFFFFF;" parent="439" vertex="1">
                    <mxGeometry x="200" y="300" width="50" height="50" as="geometry"/>
                </mxCell>
                <mxCell id="449" value="&lt;font color=&quot;#000000&quot; size=&quot;1&quot;&gt;&lt;b style=&quot;font-size: 20px&quot;&gt;Welcome Back Student!&lt;/b&gt;&lt;/font&gt;" style="text;html=1;strokeColor=none;fillColor=none;align=left;verticalAlign=middle;whiteSpace=wrap;rounded=0;fontColor=#FFFFFF;" parent="439" vertex="1">
                    <mxGeometry x="280" y="210" width="260" height="20" as="geometry"/>
                </mxCell>
                <mxCell id="450" value="&lt;font color=&quot;#000000&quot; style=&quot;font-size: 17px&quot;&gt;Upcoming assignments&lt;/font&gt;" style="text;html=1;strokeColor=none;fillColor=none;align=left;verticalAlign=middle;whiteSpace=wrap;rounded=0;fontColor=#FFFFFF;" parent="439" vertex="1">
                    <mxGeometry x="50" y="270" width="190" height="20" as="geometry"/>
                </mxCell>
                <mxCell id="451" value="" style="verticalLabelPosition=bottom;shadow=0;dashed=0;align=center;html=1;verticalAlign=top;strokeWidth=1;shape=mxgraph.mockup.graphics.simpleIcon;strokeColor=#999999;fillColor=#ffffff;fontColor=#FFFFFF;" parent="439" vertex="1">
                    <mxGeometry x="270" y="300" width="50" height="50" as="geometry"/>
                </mxCell>
                <mxCell id="452" value="&lt;font color=&quot;#000000&quot; style=&quot;font-size: 17px&quot;&gt;Explore popular exams&lt;/font&gt;" style="text;html=1;strokeColor=none;fillColor=none;align=left;verticalAlign=middle;whiteSpace=wrap;rounded=0;fontColor=#FFFFFF;" parent="439" vertex="1">
                    <mxGeometry x="50" y="390" width="190" height="20" as="geometry"/>
                </mxCell>
                <mxCell id="453" value="&lt;h1&gt;&lt;font color=&quot;#000000&quot;&gt;Test your skills&lt;/font&gt;orem ipsum dolor sit amet, consectetur adipisicing elit, sed do eiusmod tempor incididunt ut labore et dolore magna aliqua.&lt;/h1&gt;" style="text;html=1;strokeColor=none;fillColor=none;spacing=5;spacingTop=-20;whiteSpace=wrap;overflow=hidden;rounded=0;fontColor=#FFFFFF;" parent="439" vertex="1">
                    <mxGeometry x="50" y="500" width="260" height="50" as="geometry"/>
                </mxCell>
                <mxCell id="454" value="" style="rounded=0;whiteSpace=wrap;html=1;fontColor=#FFFFFF;fillColor=none;" parent="439" vertex="1">
                    <mxGeometry x="50" y="550" width="640" height="170" as="geometry"/>
                </mxCell>
                <mxCell id="455" value="&lt;font color=&quot;#000000&quot; style=&quot;font-size: 17px&quot;&gt;Last Attempts&lt;/font&gt;" style="text;html=1;strokeColor=none;fillColor=none;align=left;verticalAlign=middle;whiteSpace=wrap;rounded=0;fontColor=#FFFFFF;" parent="439" vertex="1">
                    <mxGeometry x="420" y="260" width="190" height="20" as="geometry"/>
                </mxCell>
                <mxCell id="456" value="" style="verticalLabelPosition=bottom;shadow=0;dashed=0;align=center;html=1;verticalAlign=top;strokeWidth=1;shape=mxgraph.mockup.graphics.simpleIcon;strokeColor=#999999;fillColor=#ffffff;fontColor=#FFFFFF;" parent="439" vertex="1">
                    <mxGeometry x="420" y="300" width="50" height="50" as="geometry"/>
                </mxCell>
                <mxCell id="457" value="" style="verticalLabelPosition=bottom;shadow=0;dashed=0;align=center;html=1;verticalAlign=top;strokeWidth=1;shape=mxgraph.mockup.graphics.simpleIcon;strokeColor=#999999;fillColor=#ffffff;fontColor=#FFFFFF;" parent="439" vertex="1">
                    <mxGeometry x="495" y="300" width="50" height="50" as="geometry"/>
                </mxCell>
                <mxCell id="458" value="" style="verticalLabelPosition=bottom;shadow=0;dashed=0;align=center;html=1;verticalAlign=top;strokeWidth=1;shape=mxgraph.mockup.graphics.simpleIcon;strokeColor=#999999;fillColor=#ffffff;fontColor=#FFFFFF;" parent="439" vertex="1">
                    <mxGeometry x="570" y="300" width="50" height="50" as="geometry"/>
                </mxCell>
                <mxCell id="459" value="" style="verticalLabelPosition=bottom;shadow=0;dashed=0;align=center;html=1;verticalAlign=top;strokeWidth=1;shape=mxgraph.mockup.graphics.simpleIcon;strokeColor=#999999;fillColor=#ffffff;fontColor=#FFFFFF;" parent="439" vertex="1">
                    <mxGeometry x="640" y="300" width="50" height="50" as="geometry"/>
                </mxCell>
                <mxCell id="462" value="" style="html=1;shadow=0;dashed=0;shape=mxgraph.bootstrap.rrect;rSize=5;strokeColor=#DFDFDF;html=1;whiteSpace=wrap;fillColor=#FFFFFF;fontColor=#000000;" parent="439" vertex="1">
                    <mxGeometry x="540" y="170" width="200" height="60" as="geometry"/>
                </mxCell>
                <mxCell id="463" value="Profile" style="html=1;shadow=0;dashed=0;shape=mxgraph.bootstrap.topButton;strokeColor=inherit;fillColor=#F7F7F7;rSize=5;perimeter=none;whiteSpace=wrap;resizeWidth=1;align=left;spacing=10;" parent="462" vertex="1">
                    <mxGeometry width="200" height="30" relative="1" as="geometry"/>
                </mxCell>
                <mxCell id="464" value="Submissions" style="strokeColor=inherit;fillColor=inherit;gradientColor=inherit;fontColor=inherit;html=1;shadow=0;dashed=0;perimeter=none;whiteSpace=wrap;resizeWidth=1;align=left;spacing=10;" parent="462" vertex="1">
                    <mxGeometry width="200" height="30" relative="1" as="geometry">
                        <mxPoint y="30" as="offset"/>
                    </mxGeometry>
                </mxCell>
                <mxCell id="466" value="Logout" style="strokeColor=inherit;fillColor=inherit;gradientColor=inherit;fontColor=inherit;html=1;shadow=0;dashed=0;shape=mxgraph.bootstrap.bottomButton;rSize=5;perimeter=none;whiteSpace=wrap;resizeWidth=1;resizeHeight=0;align=left;spacing=10;" parent="462" vertex="1">
                    <mxGeometry y="1" width="200" height="30" relative="1" as="geometry">
                        <mxPoint y="-30" as="offset"/>
                    </mxGeometry>
                </mxCell>
                <mxCell id="460" value="" style="verticalLabelPosition=bottom;shadow=0;dashed=0;align=center;html=1;verticalAlign=top;strokeWidth=1;shape=mxgraph.mockup.containers.userMale;strokeColor2=#008cff;" parent="468" vertex="1">
                    <mxGeometry x="665" y="120" width="50" height="40" as="geometry"/>
                </mxCell>
                <mxCell id="461" value="" style="whiteSpace=wrap;html=1;shape=mxgraph.basic.oval_callout;fontColor=#FFFFFF;fillColor=#FFFFFF;" parent="468" vertex="1">
                    <mxGeometry x="600" y="125" width="40" height="30" as="geometry"/>
                </mxCell>
                <mxCell id="508" value="" style="group" parent="1" vertex="1" connectable="0">
                    <mxGeometry x="1790" y="30" width="815" height="780" as="geometry"/>
                </mxCell>
                <mxCell id="509" value="" style="strokeWidth=1;shadow=0;dashed=0;align=center;html=1;shape=mxgraph.mockup.containers.browserWindow;rSize=0;strokeColor=#666666;strokeColor2=#008cff;strokeColor3=#c4c4c4;mainText=,;recursiveResize=0;" parent="508" vertex="1">
                    <mxGeometry width="815" height="780" as="geometry"/>
                </mxCell>
                <mxCell id="510" value="Student|code-grade" style="strokeWidth=1;shadow=0;dashed=0;align=center;html=1;shape=mxgraph.mockup.containers.anchor;fontSize=17;fontColor=#666666;align=left;" parent="509" vertex="1">
                    <mxGeometry x="60" y="12" width="110" height="26" as="geometry"/>
                </mxCell>
                <mxCell id="511" value="https://www.code-grade.io/student" style="strokeWidth=1;shadow=0;dashed=0;align=center;html=1;shape=mxgraph.mockup.containers.anchor;rSize=0;fontSize=17;fontColor=#666666;align=left;" parent="509" vertex="1">
                    <mxGeometry x="130" y="60" width="250" height="26" as="geometry"/>
                </mxCell>
                <mxCell id="512" value="Code-grade" style="html=1;shadow=0;dashed=0;fillColor=#0085FC;strokeColor=none;fontSize=16;fontColor=#ffffff;align=left;spacing=15;" parent="509" vertex="1">
                    <mxGeometry y="110" width="750" height="60" as="geometry"/>
                </mxCell>
                <mxCell id="513" value="Home" style="fillColor=none;strokeColor=none;fontSize=14;align=center;fontColor=#FFFFFF;" parent="512" vertex="1">
                    <mxGeometry width="70" height="40" relative="1" as="geometry">
                        <mxPoint x="140" y="10" as="offset"/>
                    </mxGeometry>
                </mxCell>
                <mxCell id="514" value="Assignments" style="fillColor=none;strokeColor=none;fontSize=14;fontColor=#79BFFD;align=center;spacingRight=0;" parent="512" vertex="1">
                    <mxGeometry width="80" height="40" relative="1" as="geometry">
                        <mxPoint x="210" y="10" as="offset"/>
                    </mxGeometry>
                </mxCell>
                <mxCell id="515" value="Questions" style="fillColor=none;strokeColor=none;fontSize=14;fontColor=#79BFFD;align=center;" parent="512" vertex="1">
                    <mxGeometry width="80" height="40" relative="1" as="geometry">
                        <mxPoint x="300" y="10" as="offset"/>
                    </mxGeometry>
                </mxCell>
                <mxCell id="539" value="" style="html=1;shadow=0;dashed=0;shape=mxgraph.bootstrap.rrect;rSize=5;strokeColor=#DFDFDF;html=1;whiteSpace=wrap;fillColor=#ffffff;fontColor=#000000;verticalAlign=bottom;align=left;spacing=20;spacingBottom=130;fontSize=14;" parent="509" vertex="1">
                    <mxGeometry x="40" y="200" width="250" height="450" as="geometry"/>
                </mxCell>
                <mxCell id="540" value="" style="html=1;shadow=0;dashed=0;shape=mxgraph.bootstrap.topButton;rSize=5;perimeter=none;whiteSpace=wrap;fillColor=#868E96;strokeColor=#DFDFDF;fontColor=#DEE2E6;resizeWidth=1;fontSize=18;" parent="539" vertex="1">
                    <mxGeometry width="250" height="180" relative="1" as="geometry"/>
                </mxCell>
                <mxCell id="541" value="&lt;span style=&quot;font-size: 20px&quot;&gt;&lt;b&gt;John Doe&lt;br&gt;&lt;/b&gt;&lt;/span&gt;&lt;br style=&quot;font-size: 14px&quot;&gt;Some quick example text to build on the card title and make up the bulk of the card's content." style="perimeter=none;html=1;whiteSpace=wrap;fillColor=none;strokeColor=none;resizeWidth=1;verticalAlign=top;align=left;spacing=20;spacingTop=-10;fontSize=14;" parent="539" vertex="1">
                    <mxGeometry width="250" height="120" relative="1" as="geometry">
                        <mxPoint y="180" as="offset"/>
                    </mxGeometry>
                </mxCell>
                <mxCell id="542" value="Cras justo odio" style="html=1;shadow=0;dashed=0;strokeColor=none;fontSize=14;fillColor=none;perimeter=none;whiteSpace=wrap;resizeWidth=1;align=left;spacing=10;" parent="539" vertex="1">
                    <mxGeometry width="250" height="30" relative="1" as="geometry">
                        <mxPoint y="300" as="offset"/>
                    </mxGeometry>
                </mxCell>
                <mxCell id="543" value="Dapibus ac facilisis in" style="strokeColor=inherit;fillColor=inherit;gradientColor=inherit;fontColor=inherit;html=1;shadow=0;dashed=0;perimeter=none;fontSize=14;whiteSpace=wrap;resizeWidth=1;align=left;spacing=10;" parent="539" vertex="1">
                    <mxGeometry width="250" height="30" relative="1" as="geometry">
                        <mxPoint y="330" as="offset"/>
                    </mxGeometry>
                </mxCell>
                <mxCell id="544" value="Vestibulum at eros" style="strokeColor=inherit;fillColor=inherit;gradientColor=inherit;fontColor=inherit;html=1;shadow=0;dashed=0;shape=mxgraph.bootstrap.bottomButton;rSize=5;perimeter=none;fontSize=14;whiteSpace=wrap;resizeWidth=1;resizeHeight=0;align=left;spacing=10;" parent="539" vertex="1">
                    <mxGeometry width="250" height="30" relative="1" as="geometry">
                        <mxPoint y="360" as="offset"/>
                    </mxGeometry>
                </mxCell>
                <mxCell id="545" value="Edit" style="html=1;shadow=0;dashed=0;shape=mxgraph.bootstrap.rrect;rSize=5;perimeter=none;whiteSpace=wrap;fillColor=none;strokeColor=none;fontColor=#0085FC;resizeWidth=1;fontSize=14;align=center;" parent="539" vertex="1">
                    <mxGeometry y="1" width="80" height="40" relative="1" as="geometry">
                        <mxPoint x="10" y="-50" as="offset"/>
                    </mxGeometry>
                </mxCell>
                <mxCell id="546" value="Invite" style="html=1;shadow=0;dashed=0;shape=mxgraph.bootstrap.rrect;rSize=5;perimeter=none;whiteSpace=wrap;fillColor=none;strokeColor=none;fontColor=#0085FC;resizeWidth=1;fontSize=14;align=center;" parent="539" vertex="1">
                    <mxGeometry y="1" width="100" height="40" relative="1" as="geometry">
                        <mxPoint x="100" y="-50" as="offset"/>
                    </mxGeometry>
                </mxCell>
                <mxCell id="547" value="" style="image;html=1;image=img/lib/clip_art/people/Suit_Man_128x128.png;fontColor=#66B2FF;" parent="539" vertex="1">
                    <mxGeometry x="50" y="30" width="140" height="130" as="geometry"/>
                </mxCell>
                <mxCell id="667" value="" style="html=1;shadow=0;dashed=0;shape=mxgraph.bootstrap.rrect;rSize=5;strokeColor=#DFDFDF;html=1;whiteSpace=wrap;fillColor=#FFFFFF;fontColor=#000000;" parent="509" vertex="1">
                    <mxGeometry x="310" y="200" width="450" height="170" as="geometry"/>
                </mxCell>
                <mxCell id="668" value="" style="html=1;shadow=0;dashed=0;shape=mxgraph.bootstrap.topButton;strokeColor=inherit;fillColor=#F7F7F7;rSize=5;perimeter=none;whiteSpace=wrap;resizeWidth=1;align=left;spacing=20;fontSize=14;" parent="667" vertex="1">
                    <mxGeometry width="450" height="40" relative="1" as="geometry"/>
                </mxCell>
                <mxCell id="669" value="&lt;b&gt;&lt;font style=&quot;font-size: 20px&quot;&gt;Special title treatment&lt;/font&gt;&lt;/b&gt;&lt;br style=&quot;font-size: 14px&quot;&gt;&lt;br style=&quot;font-size: 14px&quot;&gt;With supporting text below as a natural lead-in to additional content." style="perimeter=none;html=1;whiteSpace=wrap;fillColor=none;strokeColor=none;resizeWidth=1;verticalAlign=top;align=left;spacing=20;spacingTop=-10;fontSize=14;" parent="667" vertex="1">
                    <mxGeometry width="450" height="120" relative="1" as="geometry">
                        <mxPoint y="40" as="offset"/>
                    </mxGeometry>
                </mxCell>
                <mxCell id="679" value="" style="strokeWidth=1;shadow=0;dashed=0;align=center;html=1;shape=mxgraph.mockup.forms.rrect;rSize=5;strokeColor=#999999;fillColor=#ffffff;fontColor=#3399FF;" parent="509" vertex="1">
                    <mxGeometry x="310" y="420" width="422" height="310" as="geometry"/>
                </mxCell>
                <mxCell id="680" value="October 2014" style="strokeWidth=1;shadow=0;dashed=0;align=center;html=1;shape=mxgraph.mockup.forms.anchor;fontColor=#999999;" parent="679" vertex="1">
                    <mxGeometry x="79.125" y="14.171428571428573" width="263.75" height="35.42857142857143" as="geometry"/>
                </mxCell>
                <mxCell id="681" value="&lt;" style="strokeWidth=1;shadow=0;dashed=0;align=center;html=1;shape=mxgraph.mockup.forms.rrect;rSize=4;strokeColor=#999999;fontColor=#008cff;fontSize=19;fontStyle=1;" parent="679" vertex="1">
                    <mxGeometry x="21.1" y="14.171428571428573" width="65.9375" height="35.42857142857143" as="geometry"/>
                </mxCell>
                <mxCell id="682" value="&gt;" style="strokeWidth=1;shadow=0;dashed=0;align=center;html=1;shape=mxgraph.mockup.forms.rrect;rSize=4;strokeColor=#999999;fontColor=#008cff;fontSize=19;fontStyle=1;" parent="679" vertex="1">
                    <mxGeometry x="334.96250000000003" y="14.171428571428573" width="65.9375" height="35.42857142857143" as="geometry"/>
                </mxCell>
                <mxCell id="683" value="Mo" style="strokeWidth=1;shadow=0;dashed=0;align=center;html=1;shape=mxgraph.mockup.forms.anchor;fontColor=#999999;" parent="679" vertex="1">
                    <mxGeometry x="26.375" y="49.6" width="52.75" height="35.42857142857143" as="geometry"/>
                </mxCell>
                <mxCell id="684" value="Tu" style="strokeWidth=1;shadow=0;dashed=0;align=center;html=1;shape=mxgraph.mockup.forms.anchor;fontColor=#999999;" parent="679" vertex="1">
                    <mxGeometry x="79.125" y="49.6" width="52.75" height="35.42857142857143" as="geometry"/>
                </mxCell>
                <mxCell id="685" value="We" style="strokeWidth=1;shadow=0;dashed=0;align=center;html=1;shape=mxgraph.mockup.forms.anchor;fontColor=#999999;" parent="679" vertex="1">
                    <mxGeometry x="131.875" y="49.6" width="52.75" height="35.42857142857143" as="geometry"/>
                </mxCell>
                <mxCell id="686" value="Th" style="strokeWidth=1;shadow=0;dashed=0;align=center;html=1;shape=mxgraph.mockup.forms.anchor;fontColor=#999999;" parent="679" vertex="1">
                    <mxGeometry x="184.625" y="49.6" width="52.75" height="35.42857142857143" as="geometry"/>
                </mxCell>
                <mxCell id="687" value="Fr" style="strokeWidth=1;shadow=0;dashed=0;align=center;html=1;shape=mxgraph.mockup.forms.anchor;fontColor=#999999;" parent="679" vertex="1">
                    <mxGeometry x="237.375" y="49.6" width="52.75" height="35.42857142857143" as="geometry"/>
                </mxCell>
                <mxCell id="688" value="Sa" style="strokeWidth=1;shadow=0;dashed=0;align=center;html=1;shape=mxgraph.mockup.forms.anchor;fontColor=#999999;" parent="679" vertex="1">
                    <mxGeometry x="290.125" y="49.6" width="52.75" height="35.42857142857143" as="geometry"/>
                </mxCell>
                <mxCell id="689" value="Su" style="strokeWidth=1;shadow=0;dashed=0;align=center;html=1;shape=mxgraph.mockup.forms.anchor;fontColor=#999999;" parent="679" vertex="1">
                    <mxGeometry x="342.875" y="49.6" width="52.75" height="35.42857142857143" as="geometry"/>
                </mxCell>
                <mxCell id="690" value="1" style="strokeWidth=1;shadow=0;dashed=0;align=center;html=1;shape=mxgraph.mockup.forms.rrect;rSize=0;strokeColor=#999999;fontColor=#999999;" parent="679" vertex="1">
                    <mxGeometry x="26.375" y="85.02857142857142" width="52.75" height="35.42857142857143" as="geometry"/>
                </mxCell>
                <mxCell id="691" value="2" style="strokeWidth=1;shadow=0;dashed=0;align=center;html=1;shape=mxgraph.mockup.forms.rrect;rSize=0;strokeColor=#999999;fontColor=#999999;" parent="679" vertex="1">
                    <mxGeometry x="79.125" y="85.02857142857142" width="52.75" height="35.42857142857143" as="geometry"/>
                </mxCell>
                <mxCell id="692" value="3" style="strokeWidth=1;shadow=0;dashed=0;align=center;html=1;shape=mxgraph.mockup.forms.rrect;rSize=0;strokeColor=#999999;fontColor=#999999;" parent="679" vertex="1">
                    <mxGeometry x="131.875" y="85.02857142857142" width="52.75" height="35.42857142857143" as="geometry"/>
                </mxCell>
                <mxCell id="693" value="4" style="strokeWidth=1;shadow=0;dashed=0;align=center;html=1;shape=mxgraph.mockup.forms.rrect;rSize=0;strokeColor=#999999;fontColor=#999999;" parent="679" vertex="1">
                    <mxGeometry x="184.625" y="85.02857142857142" width="52.75" height="35.42857142857143" as="geometry"/>
                </mxCell>
                <mxCell id="694" value="5" style="strokeWidth=1;shadow=0;dashed=0;align=center;html=1;shape=mxgraph.mockup.forms.rrect;rSize=0;strokeColor=#999999;fontColor=#999999;" parent="679" vertex="1">
                    <mxGeometry x="237.375" y="85.02857142857142" width="52.75" height="35.42857142857143" as="geometry"/>
                </mxCell>
                <mxCell id="695" value="6" style="strokeWidth=1;shadow=0;dashed=0;align=center;html=1;shape=mxgraph.mockup.forms.rrect;rSize=0;strokeColor=#999999;fontColor=#999999;" parent="679" vertex="1">
                    <mxGeometry x="290.125" y="85.02857142857142" width="52.75" height="35.42857142857143" as="geometry"/>
                </mxCell>
                <mxCell id="696" value="7" style="strokeWidth=1;shadow=0;dashed=0;align=center;html=1;shape=mxgraph.mockup.forms.rrect;rSize=0;strokeColor=#999999;fontColor=#999999;" parent="679" vertex="1">
                    <mxGeometry x="342.875" y="85.02857142857142" width="52.75" height="35.42857142857143" as="geometry"/>
                </mxCell>
                <mxCell id="697" value="8" style="strokeWidth=1;shadow=0;dashed=0;align=center;html=1;shape=mxgraph.mockup.forms.rrect;rSize=0;strokeColor=#999999;fontColor=#999999;" parent="679" vertex="1">
                    <mxGeometry x="26.375" y="120.45714285714287" width="52.75" height="35.42857142857143" as="geometry"/>
                </mxCell>
                <mxCell id="698" value="9" style="strokeWidth=1;shadow=0;dashed=0;align=center;html=1;shape=mxgraph.mockup.forms.rrect;rSize=0;strokeColor=#999999;fontColor=#999999;" parent="679" vertex="1">
                    <mxGeometry x="79.125" y="120.45714285714287" width="52.75" height="35.42857142857143" as="geometry"/>
                </mxCell>
                <mxCell id="699" value="10" style="strokeWidth=1;shadow=0;dashed=0;align=center;html=1;shape=mxgraph.mockup.forms.rrect;rSize=0;strokeColor=#999999;fontColor=#999999;" parent="679" vertex="1">
                    <mxGeometry x="131.875" y="120.45714285714287" width="52.75" height="35.42857142857143" as="geometry"/>
                </mxCell>
                <mxCell id="700" value="11" style="strokeWidth=1;shadow=0;dashed=0;align=center;html=1;shape=mxgraph.mockup.forms.rrect;rSize=0;strokeColor=#999999;fontColor=#999999;" parent="679" vertex="1">
                    <mxGeometry x="184.625" y="120.45714285714287" width="52.75" height="35.42857142857143" as="geometry"/>
                </mxCell>
                <mxCell id="701" value="12" style="strokeWidth=1;shadow=0;dashed=0;align=center;html=1;shape=mxgraph.mockup.forms.rrect;rSize=0;strokeColor=#999999;fontColor=#999999;" parent="679" vertex="1">
                    <mxGeometry x="237.375" y="120.45714285714287" width="52.75" height="35.42857142857143" as="geometry"/>
                </mxCell>
                <mxCell id="702" value="13" style="strokeWidth=1;shadow=0;dashed=0;align=center;html=1;shape=mxgraph.mockup.forms.rrect;rSize=0;strokeColor=#999999;fontColor=#999999;" parent="679" vertex="1">
                    <mxGeometry x="290.125" y="120.45714285714287" width="52.75" height="35.42857142857143" as="geometry"/>
                </mxCell>
                <mxCell id="703" value="14" style="strokeWidth=1;shadow=0;dashed=0;align=center;html=1;shape=mxgraph.mockup.forms.rrect;rSize=0;strokeColor=#999999;fontColor=#999999;" parent="679" vertex="1">
                    <mxGeometry x="342.875" y="120.45714285714287" width="52.75" height="35.42857142857143" as="geometry"/>
                </mxCell>
                <mxCell id="704" value="15" style="strokeWidth=1;shadow=0;dashed=0;align=center;html=1;shape=mxgraph.mockup.forms.rrect;rSize=0;strokeColor=#999999;fontColor=#999999;" parent="679" vertex="1">
                    <mxGeometry x="26.375" y="155.88571428571427" width="52.75" height="35.42857142857143" as="geometry"/>
                </mxCell>
                <mxCell id="705" value="16" style="strokeWidth=1;shadow=0;dashed=0;align=center;html=1;shape=mxgraph.mockup.forms.rrect;rSize=0;strokeColor=#999999;fontColor=#999999;" parent="679" vertex="1">
                    <mxGeometry x="79.125" y="155.88571428571427" width="52.75" height="35.42857142857143" as="geometry"/>
                </mxCell>
                <mxCell id="706" value="17" style="strokeWidth=1;shadow=0;dashed=0;align=center;html=1;shape=mxgraph.mockup.forms.rrect;rSize=0;strokeColor=#999999;fontColor=#999999;" parent="679" vertex="1">
                    <mxGeometry x="131.875" y="155.88571428571427" width="52.75" height="35.42857142857143" as="geometry"/>
                </mxCell>
                <mxCell id="707" value="18" style="strokeWidth=1;shadow=0;dashed=0;align=center;html=1;shape=mxgraph.mockup.forms.rrect;rSize=0;strokeColor=#999999;fontColor=#999999;" parent="679" vertex="1">
                    <mxGeometry x="184.625" y="155.88571428571427" width="52.75" height="35.42857142857143" as="geometry"/>
                </mxCell>
                <mxCell id="708" value="19" style="strokeWidth=1;shadow=0;dashed=0;align=center;html=1;shape=mxgraph.mockup.forms.rrect;rSize=0;strokeColor=#999999;fontColor=#999999;" parent="679" vertex="1">
                    <mxGeometry x="237.375" y="155.88571428571427" width="52.75" height="35.42857142857143" as="geometry"/>
                </mxCell>
                <mxCell id="709" value="20" style="strokeWidth=1;shadow=0;dashed=0;align=center;html=1;shape=mxgraph.mockup.forms.rrect;rSize=0;strokeColor=#999999;fontColor=#999999;" parent="679" vertex="1">
                    <mxGeometry x="290.125" y="155.88571428571427" width="52.75" height="35.42857142857143" as="geometry"/>
                </mxCell>
                <mxCell id="710" value="21" style="strokeWidth=1;shadow=0;dashed=0;align=center;html=1;shape=mxgraph.mockup.forms.rrect;rSize=0;strokeColor=#999999;fontColor=#999999;" parent="679" vertex="1">
                    <mxGeometry x="342.875" y="155.88571428571427" width="52.75" height="35.42857142857143" as="geometry"/>
                </mxCell>
                <mxCell id="711" value="22" style="strokeWidth=1;shadow=0;dashed=0;align=center;html=1;shape=mxgraph.mockup.forms.rrect;rSize=0;strokeColor=#999999;fontColor=#999999;" parent="679" vertex="1">
                    <mxGeometry x="26.375" y="191.31428571428572" width="52.75" height="35.42857142857143" as="geometry"/>
                </mxCell>
                <mxCell id="712" value="23" style="strokeWidth=1;shadow=0;dashed=0;align=center;html=1;shape=mxgraph.mockup.forms.rrect;rSize=0;strokeColor=#999999;fontColor=#999999;" parent="679" vertex="1">
                    <mxGeometry x="79.125" y="191.31428571428572" width="52.75" height="35.42857142857143" as="geometry"/>
                </mxCell>
                <mxCell id="713" value="25" style="strokeWidth=1;shadow=0;dashed=0;align=center;html=1;shape=mxgraph.mockup.forms.rrect;rSize=0;strokeColor=#999999;fontColor=#999999;" parent="679" vertex="1">
                    <mxGeometry x="184.625" y="191.31428571428572" width="52.75" height="35.42857142857143" as="geometry"/>
                </mxCell>
                <mxCell id="714" value="26" style="strokeWidth=1;shadow=0;dashed=0;align=center;html=1;shape=mxgraph.mockup.forms.rrect;rSize=0;strokeColor=#999999;fontColor=#999999;" parent="679" vertex="1">
                    <mxGeometry x="237.375" y="191.31428571428572" width="52.75" height="35.42857142857143" as="geometry"/>
                </mxCell>
                <mxCell id="715" value="27" style="strokeWidth=1;shadow=0;dashed=0;align=center;html=1;shape=mxgraph.mockup.forms.rrect;rSize=0;strokeColor=#999999;fontColor=#999999;" parent="679" vertex="1">
                    <mxGeometry x="290.125" y="191.31428571428572" width="52.75" height="35.42857142857143" as="geometry"/>
                </mxCell>
                <mxCell id="716" value="28" style="strokeWidth=1;shadow=0;dashed=0;align=center;html=1;shape=mxgraph.mockup.forms.rrect;rSize=0;strokeColor=#999999;fontColor=#999999;" parent="679" vertex="1">
                    <mxGeometry x="342.875" y="191.31428571428572" width="52.75" height="35.42857142857143" as="geometry"/>
                </mxCell>
                <mxCell id="717" value="29" style="strokeWidth=1;shadow=0;dashed=0;align=center;html=1;shape=mxgraph.mockup.forms.rrect;rSize=0;strokeColor=#999999;fontColor=#999999;" parent="679" vertex="1">
                    <mxGeometry x="26.375" y="226.74285714285716" width="52.75" height="35.42857142857143" as="geometry"/>
                </mxCell>
                <mxCell id="718" value="30" style="strokeWidth=1;shadow=0;dashed=0;align=center;html=1;shape=mxgraph.mockup.forms.rrect;rSize=0;strokeColor=#999999;fontColor=#999999;" parent="679" vertex="1">
                    <mxGeometry x="79.125" y="226.74285714285716" width="52.75" height="35.42857142857143" as="geometry"/>
                </mxCell>
                <mxCell id="719" value="31" style="strokeWidth=1;shadow=0;dashed=0;align=center;html=1;shape=mxgraph.mockup.forms.rrect;rSize=0;strokeColor=#999999;fontColor=#999999;" parent="679" vertex="1">
                    <mxGeometry x="131.875" y="226.74285714285716" width="52.75" height="35.42857142857143" as="geometry"/>
                </mxCell>
                <mxCell id="720" value="1" style="strokeWidth=1;shadow=0;dashed=0;align=center;html=1;shape=mxgraph.mockup.forms.rrect;rSize=0;strokeColor=#999999;fontColor=#999999;fillColor=#ddeeff;" parent="679" vertex="1">
                    <mxGeometry x="184.625" y="226.74285714285716" width="52.75" height="35.42857142857143" as="geometry"/>
                </mxCell>
                <mxCell id="721" value="2" style="strokeWidth=1;shadow=0;dashed=0;align=center;html=1;shape=mxgraph.mockup.forms.rrect;rSize=0;strokeColor=#999999;fontColor=#999999;fillColor=#ddeeff;" parent="679" vertex="1">
                    <mxGeometry x="237.375" y="226.74285714285716" width="52.75" height="35.42857142857143" as="geometry"/>
                </mxCell>
                <mxCell id="722" value="3" style="strokeWidth=1;shadow=0;dashed=0;align=center;html=1;shape=mxgraph.mockup.forms.rrect;rSize=0;strokeColor=#999999;fontColor=#999999;fillColor=#ddeeff;" parent="679" vertex="1">
                    <mxGeometry x="290.125" y="226.74285714285716" width="52.75" height="35.42857142857143" as="geometry"/>
                </mxCell>
                <mxCell id="723" value="4" style="strokeWidth=1;shadow=0;dashed=0;align=center;html=1;shape=mxgraph.mockup.forms.rrect;rSize=0;strokeColor=#999999;fontColor=#999999;fillColor=#ddeeff;" parent="679" vertex="1">
                    <mxGeometry x="342.875" y="226.74285714285716" width="52.75" height="35.42857142857143" as="geometry"/>
                </mxCell>
                <mxCell id="724" value="5" style="strokeWidth=1;shadow=0;dashed=0;align=center;html=1;shape=mxgraph.mockup.forms.rrect;rSize=0;strokeColor=#999999;fontColor=#999999;fillColor=#ddeeff;" parent="679" vertex="1">
                    <mxGeometry x="26.375" y="262.1714285714286" width="52.75" height="35.42857142857143" as="geometry"/>
                </mxCell>
                <mxCell id="725" value="6" style="strokeWidth=1;shadow=0;dashed=0;align=center;html=1;shape=mxgraph.mockup.forms.rrect;rSize=0;strokeColor=#999999;fontColor=#999999;fillColor=#ddeeff;" parent="679" vertex="1">
                    <mxGeometry x="79.125" y="262.1714285714286" width="52.75" height="35.42857142857143" as="geometry"/>
                </mxCell>
                <mxCell id="726" value="7" style="strokeWidth=1;shadow=0;dashed=0;align=center;html=1;shape=mxgraph.mockup.forms.rrect;rSize=0;strokeColor=#999999;fontColor=#999999;fillColor=#ddeeff;" parent="679" vertex="1">
                    <mxGeometry x="131.875" y="262.1714285714286" width="52.75" height="35.42857142857143" as="geometry"/>
                </mxCell>
                <mxCell id="727" value="8" style="strokeWidth=1;shadow=0;dashed=0;align=center;html=1;shape=mxgraph.mockup.forms.rrect;rSize=0;strokeColor=#999999;fontColor=#999999;fillColor=#ddeeff;" parent="679" vertex="1">
                    <mxGeometry x="184.625" y="262.1714285714286" width="52.75" height="35.42857142857143" as="geometry"/>
                </mxCell>
                <mxCell id="728" value="9" style="strokeWidth=1;shadow=0;dashed=0;align=center;html=1;shape=mxgraph.mockup.forms.rrect;rSize=0;strokeColor=#999999;fontColor=#999999;fillColor=#ddeeff;" parent="679" vertex="1">
                    <mxGeometry x="237.375" y="262.1714285714286" width="52.75" height="35.42857142857143" as="geometry"/>
                </mxCell>
                <mxCell id="729" value="10" style="strokeWidth=1;shadow=0;dashed=0;align=center;html=1;shape=mxgraph.mockup.forms.rrect;rSize=0;strokeColor=#999999;fontColor=#999999;fillColor=#ddeeff;" parent="679" vertex="1">
                    <mxGeometry x="290.125" y="262.1714285714286" width="52.75" height="35.42857142857143" as="geometry"/>
                </mxCell>
                <mxCell id="730" value="11" style="strokeWidth=1;shadow=0;dashed=0;align=center;html=1;shape=mxgraph.mockup.forms.rrect;rSize=0;strokeColor=#999999;fontColor=#999999;fillColor=#ddeeff;" parent="679" vertex="1">
                    <mxGeometry x="342.875" y="262.1714285714286" width="52.75" height="35.42857142857143" as="geometry"/>
                </mxCell>
                <mxCell id="731" value="24" style="strokeWidth=1;shadow=0;dashed=0;align=center;html=1;shape=mxgraph.mockup.forms.rrect;rSize=0;strokeColor=#ff0000;fontColor=#ffffff;strokeWidth=2;fillColor=#008cff;" parent="679" vertex="1">
                    <mxGeometry x="131.875" y="191.31428571428572" width="52.75" height="35.42857142857143" as="geometry"/>
                </mxCell>
                <mxCell id="732" value="&lt;b&gt;&lt;font style=&quot;font-size: 18px&quot; color=&quot;#000000&quot;&gt;Schedule&lt;/font&gt;&lt;/b&gt;" style="text;html=1;strokeColor=none;fillColor=none;align=left;verticalAlign=middle;whiteSpace=wrap;rounded=0;fontColor=#3399FF;" parent="509" vertex="1">
                    <mxGeometry x="310" y="390" width="92" height="20" as="geometry"/>
                </mxCell>
                <mxCell id="534" value="" style="verticalLabelPosition=bottom;shadow=0;dashed=0;align=center;html=1;verticalAlign=top;strokeWidth=1;shape=mxgraph.mockup.containers.userMale;strokeColor2=#008cff;" parent="508" vertex="1">
                    <mxGeometry x="665" y="120" width="50" height="40" as="geometry"/>
                </mxCell>
                <mxCell id="535" value="" style="whiteSpace=wrap;html=1;shape=mxgraph.basic.oval_callout;fontColor=#FFFFFF;fillColor=#FFFFFF;" parent="508" vertex="1">
                    <mxGeometry x="600" y="125" width="40" height="30" as="geometry"/>
                </mxCell>
                <mxCell id="537" style="edgeStyle=orthogonalEdgeStyle;rounded=0;orthogonalLoop=1;jettySize=auto;html=1;fontColor=#66B2FF;" parent="1" source="463" target="509" edge="1">
                    <mxGeometry relative="1" as="geometry"/>
                </mxCell>
                <mxCell id="733" style="edgeStyle=orthogonalEdgeStyle;rounded=0;orthogonalLoop=1;jettySize=auto;html=1;fontColor=#3399FF;" parent="1" source="466" edge="1">
                    <mxGeometry relative="1" as="geometry">
                        <mxPoint x="1075" y="-250" as="targetPoint"/>
                    </mxGeometry>
                </mxCell>
                <mxCell id="734" value="&lt;font style=&quot;font-size: 56px&quot;&gt;Landing Page&lt;/font&gt;" style="text;html=1;strokeColor=none;fillColor=none;align=center;verticalAlign=middle;whiteSpace=wrap;rounded=0;fontColor=#3399FF;" parent="1" vertex="1">
                    <mxGeometry x="970" y="-410" width="230" height="150" as="geometry"/>
                </mxCell>
                <mxCell id="843" style="edgeStyle=orthogonalEdgeStyle;rounded=0;orthogonalLoop=1;jettySize=auto;html=1;entryX=0.465;entryY=0.002;entryDx=0;entryDy=0;entryPerimeter=0;fontColor=#3399FF;" parent="1" source="24" target="927" edge="1">
                    <mxGeometry relative="1" as="geometry">
                        <mxPoint x="-421.3119999999999" y="880" as="targetPoint"/>
                    </mxGeometry>
                </mxCell>
                <mxCell id="844" value="View" style="html=1;shadow=0;dashed=0;shape=mxgraph.bootstrap.rrect;rSize=5;strokeColor=none;strokeWidth=1;fillColor=#0085FC;fontColor=#FFFFFF;whiteSpace=wrap;align=center;verticalAlign=middle;spacingLeft=0;fontStyle=1;fontSize=14;spacing=5;" parent="1" vertex="1">
                    <mxGeometry x="-120" y="1230" width="50" height="20" as="geometry"/>
                </mxCell>
                <mxCell id="845" value="View" style="html=1;shadow=0;dashed=0;shape=mxgraph.bootstrap.rrect;rSize=5;strokeColor=none;strokeWidth=1;fillColor=#0085FC;fontColor=#FFFFFF;whiteSpace=wrap;align=center;verticalAlign=middle;spacingLeft=0;fontStyle=1;fontSize=14;spacing=5;" parent="1" vertex="1">
                    <mxGeometry x="-120" y="1260" width="50" height="20" as="geometry"/>
                </mxCell>
                <mxCell id="846" value="View" style="html=1;shadow=0;dashed=0;shape=mxgraph.bootstrap.rrect;rSize=5;strokeColor=none;strokeWidth=1;fillColor=#0085FC;fontColor=#FFFFFF;whiteSpace=wrap;align=center;verticalAlign=middle;spacingLeft=0;fontStyle=1;fontSize=14;spacing=5;" parent="1" vertex="1">
                    <mxGeometry x="-120" y="1290" width="50" height="20" as="geometry"/>
                </mxCell>
                <mxCell id="864" value="" style="group" vertex="1" connectable="0" parent="1">
                    <mxGeometry x="-10" y="-80" width="750" height="780" as="geometry"/>
                </mxCell>
                <mxCell id="2" value="" style="strokeWidth=1;shadow=0;dashed=0;align=center;html=1;shape=mxgraph.mockup.containers.browserWindow;rSize=0;strokeColor=#666666;strokeColor2=#008cff;strokeColor3=#c4c4c4;mainText=,;recursiveResize=0;" parent="864" vertex="1">
                    <mxGeometry width="750" height="780" as="geometry"/>
                </mxCell>
                <mxCell id="3" value="Student|code-grade" style="strokeWidth=1;shadow=0;dashed=0;align=center;html=1;shape=mxgraph.mockup.containers.anchor;fontSize=17;fontColor=#666666;align=left;" parent="2" vertex="1">
                    <mxGeometry x="60" y="12" width="110" height="26" as="geometry"/>
                </mxCell>
                <mxCell id="4" value="https://www.code-grade.io/student" style="strokeWidth=1;shadow=0;dashed=0;align=center;html=1;shape=mxgraph.mockup.containers.anchor;rSize=0;fontSize=17;fontColor=#666666;align=left;" parent="2" vertex="1">
                    <mxGeometry x="130" y="60" width="250" height="26" as="geometry"/>
                </mxCell>
                <mxCell id="20" value="Code-grade" style="html=1;shadow=0;dashed=0;fillColor=#0085FC;strokeColor=none;fontSize=16;fontColor=#ffffff;align=left;spacing=15;" parent="2" vertex="1">
                    <mxGeometry y="110" width="750" height="60" as="geometry"/>
                </mxCell>
                <mxCell id="22" value="Home" style="fillColor=none;strokeColor=none;fontSize=14;align=center;fontColor=#FFFFFF;" parent="20" vertex="1">
                    <mxGeometry width="70" height="40" relative="1" as="geometry">
                        <mxPoint x="140" y="10" as="offset"/>
                    </mxGeometry>
                </mxCell>
                <mxCell id="23" value="Assignments" style="fillColor=none;strokeColor=none;fontSize=14;fontColor=#79BFFD;align=center;spacingRight=0;" parent="20" vertex="1">
                    <mxGeometry width="80" height="40" relative="1" as="geometry">
                        <mxPoint x="210" y="10" as="offset"/>
                    </mxGeometry>
                </mxCell>
                <mxCell id="24" value="Questions" style="fillColor=none;strokeColor=none;fontSize=14;fontColor=#79BFFD;align=center;" parent="20" vertex="1">
                    <mxGeometry width="80" height="40" relative="1" as="geometry">
                        <mxPoint x="300" y="10" as="offset"/>
                    </mxGeometry>
                </mxCell>
                <mxCell id="102" value="&lt;font color=&quot;#000000&quot; size=&quot;1&quot;&gt;&lt;b style=&quot;font-size: 20px&quot;&gt;Welcome Back John|&lt;/b&gt;&lt;/font&gt;" style="text;html=1;strokeColor=none;fillColor=none;align=left;verticalAlign=middle;whiteSpace=wrap;rounded=0;fontColor=#FFFFFF;" parent="2" vertex="1">
                    <mxGeometry x="280" y="210" width="260" height="20" as="geometry"/>
                </mxCell>
                <mxCell id="854" value="&lt;div&gt;&lt;b&gt;&lt;font style=&quot;font-size: 40px&quot;&gt;18&lt;/font&gt;&lt;/b&gt;&lt;/div&gt;&lt;br&gt;&lt;br&gt;" style="html=1;shadow=0;dashed=0;shape=mxgraph.bootstrap.rrect;rSize=5;strokeColor=#0071D5;html=1;whiteSpace=wrap;fillColor=#0085FC;fontColor=#ffffff;verticalAlign=bottom;align=center;spacing=20;spacingBottom=0;fontSize=14;" vertex="1" parent="2">
                    <mxGeometry x="30" y="280" width="220" height="160" as="geometry"/>
                </mxCell>
                <mxCell id="859" value="" style="group" vertex="1" connectable="0" parent="854">
                    <mxGeometry width="220" height="151.12" as="geometry"/>
                </mxCell>
                <mxCell id="855" value="Questions" style="html=1;shadow=0;dashed=0;shape=mxgraph.bootstrap.topButton;rSize=5;perimeter=none;whiteSpace=wrap;fillColor=#0081F4;strokeColor=#0071D5;fontColor=#ffffff;resizeWidth=1;fontSize=18;align=center;spacing=20;" vertex="1" parent="859">
                    <mxGeometry width="220" height="50" relative="1" as="geometry"/>
                </mxCell>
                <mxCell id="857" value="New Question" style="html=1;shadow=0;dashed=0;shape=mxgraph.bootstrap.rrect;rSize=5;strokeColor=none;strokeWidth=1;fillColor=#6C767D;fontColor=#FFFFFF;whiteSpace=wrap;align=center;verticalAlign=middle;spacingLeft=10;fontStyle=1;fontSize=18;" vertex="1" parent="859">
                    <mxGeometry x="20" y="115.56" width="180" height="35.56" as="geometry"/>
                </mxCell>
                <mxCell id="860" value="&lt;div&gt;&lt;/div&gt;&lt;span style=&quot;font-size: 40px&quot;&gt;&lt;b&gt;01&lt;br&gt;&lt;/b&gt;&lt;/span&gt;&lt;br&gt;&lt;br&gt;" style="html=1;shadow=0;dashed=0;shape=mxgraph.bootstrap.rrect;rSize=5;strokeColor=#0071D5;html=1;whiteSpace=wrap;fillColor=#0085FC;fontColor=#ffffff;verticalAlign=bottom;align=center;spacing=20;spacingBottom=0;fontSize=14;" vertex="1" parent="2">
                    <mxGeometry x="30" y="460" width="220" height="160" as="geometry"/>
                </mxCell>
                <mxCell id="861" value="" style="group" vertex="1" connectable="0" parent="860">
                    <mxGeometry width="220" height="151.12" as="geometry"/>
                </mxCell>
                <mxCell id="862" value="Assignments" style="html=1;shadow=0;dashed=0;shape=mxgraph.bootstrap.topButton;rSize=5;perimeter=none;whiteSpace=wrap;fillColor=#0081F4;strokeColor=#0071D5;fontColor=#ffffff;resizeWidth=1;fontSize=18;align=center;spacing=20;" vertex="1" parent="861">
                    <mxGeometry width="220" height="50" relative="1" as="geometry"/>
                </mxCell>
                <mxCell id="863" value="New Assignment" style="html=1;shadow=0;dashed=0;shape=mxgraph.bootstrap.rrect;rSize=5;strokeColor=none;strokeWidth=1;fillColor=#6C767D;fontColor=#FFFFFF;whiteSpace=wrap;align=center;verticalAlign=middle;spacingLeft=10;fontStyle=1;fontSize=18;" vertex="1" parent="861">
                    <mxGeometry x="10" y="115.56" width="200" height="35.56" as="geometry"/>
                </mxCell>
                <mxCell id="852" value="&lt;font color=&quot;#000000&quot; style=&quot;font-size: 17px&quot;&gt;Scheduled Exams&lt;/font&gt;" style="text;html=1;strokeColor=none;fillColor=none;align=left;verticalAlign=middle;whiteSpace=wrap;rounded=0;fontColor=#FFFFFF;" vertex="1" parent="2">
                    <mxGeometry x="282" y="280" width="190" height="20" as="geometry"/>
                </mxCell>
                <mxCell id="849" value="" style="verticalLabelPosition=bottom;shadow=0;dashed=0;align=center;html=1;verticalAlign=top;strokeWidth=1;shape=mxgraph.mockup.graphics.simpleIcon;strokeColor=#999999;fillColor=#ffffff;fontColor=#FFFFFF;" vertex="1" parent="2">
                    <mxGeometry x="282" y="310" width="50" height="50" as="geometry"/>
                </mxCell>
                <mxCell id="850" value="" style="verticalLabelPosition=bottom;shadow=0;dashed=0;align=center;html=1;verticalAlign=top;strokeWidth=1;shape=mxgraph.mockup.graphics.simpleIcon;strokeColor=#999999;fillColor=#ffffff;fontColor=#FFFFFF;" vertex="1" parent="2">
                    <mxGeometry x="357" y="310" width="50" height="50" as="geometry"/>
                </mxCell>
                <mxCell id="851" value="" style="verticalLabelPosition=bottom;shadow=0;dashed=0;align=center;html=1;verticalAlign=top;strokeWidth=1;shape=mxgraph.mockup.graphics.simpleIcon;strokeColor=#999999;fillColor=#ffffff;fontColor=#FFFFFF;" vertex="1" parent="2">
                    <mxGeometry x="432" y="310" width="50" height="50" as="geometry"/>
                </mxCell>
                <mxCell id="853" value="" style="verticalLabelPosition=bottom;shadow=0;dashed=0;align=center;html=1;verticalAlign=top;strokeWidth=1;shape=mxgraph.mockup.graphics.simpleIcon;strokeColor=#999999;fillColor=#ffffff;fontColor=#FFFFFF;" vertex="1" parent="2">
                    <mxGeometry x="502" y="310" width="50" height="50" as="geometry"/>
                </mxCell>
                <mxCell id="911" value="Last Assignment Qustions" style="text;html=1;strokeColor=none;fillColor=none;align=left;verticalAlign=middle;whiteSpace=wrap;rounded=0;" vertex="1" parent="2">
                    <mxGeometry x="277" y="380" width="183" height="20" as="geometry"/>
                </mxCell>
                <mxCell id="913" value="" style="verticalLabelPosition=bottom;shadow=0;dashed=0;align=center;html=1;verticalAlign=top;strokeWidth=1;shape=mxgraph.mockup.graphics.columnChart;strokeColor=none;strokeColor2=none;strokeColor3=#666666;fillColor2=#008cff;fillColor3=#dddddd;" vertex="1" parent="2">
                    <mxGeometry x="280" y="420" width="400" height="200" as="geometry"/>
                </mxCell>
                <mxCell id="35" value="" style="whiteSpace=wrap;html=1;shape=mxgraph.basic.oval_callout;fontColor=#FFFFFF;fillColor=#FFFFFF;" parent="864" vertex="1">
                    <mxGeometry x="612" y="125" width="40" height="30" as="geometry"/>
                </mxCell>
                <mxCell id="27" value="" style="verticalLabelPosition=bottom;shadow=0;dashed=0;align=center;html=1;verticalAlign=top;strokeWidth=1;shape=mxgraph.mockup.containers.userMale;strokeColor2=#008cff;" parent="864" vertex="1">
                    <mxGeometry x="677" y="120" width="50" height="40" as="geometry"/>
                </mxCell>
                <mxCell id="927" value="" style="strokeWidth=1;shadow=0;dashed=0;align=center;html=1;shape=mxgraph.mockup.containers.browserWindow;rSize=0;strokeColor=#666666;strokeColor2=#008cff;strokeColor3=#c4c4c4;mainText=,;recursiveResize=0;" vertex="1" parent="1">
                    <mxGeometry x="-755" y="890" width="755" height="990" as="geometry"/>
                </mxCell>
                <mxCell id="928" value="Assignmentscode-grade" style="strokeWidth=1;shadow=0;dashed=0;align=center;html=1;shape=mxgraph.mockup.containers.anchor;fontSize=17;fontColor=#666666;align=left;" vertex="1" parent="927">
                    <mxGeometry x="60" y="12" width="110" height="26" as="geometry"/>
                </mxCell>
                <mxCell id="929" value="https://www.code-grade.io/student/assignment/:id" style="strokeWidth=1;shadow=0;dashed=0;align=center;html=1;shape=mxgraph.mockup.containers.anchor;rSize=0;fontSize=17;fontColor=#666666;align=left;" vertex="1" parent="927">
                    <mxGeometry x="130" y="60" width="250" height="26" as="geometry"/>
                </mxCell>
                <mxCell id="930" value="" style="group" vertex="1" connectable="0" parent="927">
                    <mxGeometry y="110" width="750" height="60" as="geometry"/>
                </mxCell>
                <mxCell id="931" value="Code-grade" style="html=1;shadow=0;dashed=0;fillColor=#0085FC;strokeColor=none;fontSize=16;fontColor=#ffffff;align=left;spacing=15;" vertex="1" parent="930">
                    <mxGeometry width="750" height="60" as="geometry"/>
                </mxCell>
                <mxCell id="932" value="Home" style="fillColor=none;strokeColor=none;fontSize=14;align=center;fontStyle=1;fontColor=#79BFFD;" vertex="1" parent="931">
                    <mxGeometry width="70" height="40" relative="1" as="geometry">
                        <mxPoint x="140" y="10" as="offset"/>
                    </mxGeometry>
                </mxCell>
                <mxCell id="933" value="Assignments" style="fillColor=none;strokeColor=none;fontSize=14;align=center;spacingRight=0;fontStyle=1;fontColor=#79BFFD;" vertex="1" parent="931">
                    <mxGeometry width="80" height="40" relative="1" as="geometry">
                        <mxPoint x="210" y="10" as="offset"/>
                    </mxGeometry>
                </mxCell>
                <mxCell id="934" value="Questions" style="fillColor=none;strokeColor=none;fontSize=14;align=center;fontColor=#FFFFFF;" vertex="1" parent="931">
                    <mxGeometry width="80" height="40" relative="1" as="geometry">
                        <mxPoint x="300" y="10" as="offset"/>
                    </mxGeometry>
                </mxCell>
                <mxCell id="935" value="" style="verticalLabelPosition=bottom;shadow=0;dashed=0;align=center;html=1;verticalAlign=top;strokeWidth=1;shape=mxgraph.mockup.containers.userMale;strokeColor2=#008cff;" vertex="1" parent="930">
                    <mxGeometry x="660" y="10" width="50" height="40" as="geometry"/>
                </mxCell>
                <mxCell id="936" value="" style="whiteSpace=wrap;html=1;shape=mxgraph.basic.oval_callout;fontColor=#FFFFFF;fillColor=#FFFFFF;" vertex="1" parent="930">
                    <mxGeometry x="595" y="15" width="40" height="30" as="geometry"/>
                </mxCell>
                <mxCell id="937" value="" style="group" vertex="1" connectable="0" parent="927">
                    <mxGeometry x="60" y="190" width="210" height="30" as="geometry"/>
                </mxCell>
                <mxCell id="938" value="" style="group" vertex="1" connectable="0" parent="937">
                    <mxGeometry x="-15" width="225" height="30" as="geometry"/>
                </mxCell>
                <mxCell id="939" value="Questions" style="strokeWidth=1;shadow=0;dashed=0;align=center;html=1;shape=mxgraph.mockup.navigation.anchor;fontSize=17;fontColor=#008cff;fontStyle=1;fillColor=none;" vertex="1" parent="938">
                    <mxGeometry x="125" width="100" height="30" as="geometry"/>
                </mxCell>
                <mxCell id="940" value="Dashboard" style="strokeWidth=1;shadow=0;dashed=0;align=center;html=1;shape=mxgraph.mockup.navigation.anchor;fontSize=17;fontColor=#666666;fontStyle=1;fillColor=none;" vertex="1" parent="938">
                    <mxGeometry width="100" height="30" as="geometry"/>
                </mxCell>
                <mxCell id="941" value="&gt;" style="strokeWidth=1;shadow=0;dashed=0;align=center;html=1;shape=mxgraph.mockup.navigation.anchor;fontSize=24;fontColor=#aaaaaa;fontStyle=1;fillColor=none;" vertex="1" parent="938">
                    <mxGeometry x="100" width="20" height="30" as="geometry"/>
                </mxCell>
                <mxCell id="947" value="" style="html=1;shadow=0;dashed=0;shape=mxgraph.bootstrap.rrect;rSize=5;strokeColor=#DFDFDF;html=1;whiteSpace=wrap;fillColor=#FFFFFF;fontColor=#000000;" vertex="1" parent="927">
                    <mxGeometry x="45" y="240" width="505" height="170" as="geometry"/>
                </mxCell>
                <mxCell id="948" value="Title-1" style="html=1;shadow=0;dashed=0;shape=mxgraph.bootstrap.topButton;strokeColor=inherit;fillColor=#F7F7F7;rSize=5;perimeter=none;whiteSpace=wrap;resizeWidth=1;align=left;spacing=20;fontSize=14;" vertex="1" parent="947">
                    <mxGeometry width="505" height="40" relative="1" as="geometry"/>
                </mxCell>
                <mxCell id="949" value="&lt;b&gt;&lt;font style=&quot;font-size: 20px&quot;&gt;Special title treatment&lt;/font&gt;&lt;/b&gt;&lt;br style=&quot;font-size: 14px&quot;&gt;&lt;br style=&quot;font-size: 14px&quot;&gt;With supporting text below as a natural lead-in to additional content." style="perimeter=none;html=1;whiteSpace=wrap;fillColor=none;strokeColor=none;resizeWidth=1;verticalAlign=top;align=left;spacing=20;spacingTop=-10;fontSize=14;" vertex="1" parent="947">
                    <mxGeometry width="505" height="120" relative="1" as="geometry">
                        <mxPoint y="40" as="offset"/>
                    </mxGeometry>
                </mxCell>
                <mxCell id="950" value="View" style="html=1;shadow=0;dashed=0;shape=mxgraph.bootstrap.rrect;rSize=5;perimeter=none;whiteSpace=wrap;fillColor=#0085FC;strokeColor=none;fontColor=#ffffff;resizeWidth=1;fontSize=14;" vertex="1" parent="947">
                    <mxGeometry y="1" width="135.75" height="40" relative="1" as="geometry">
                        <mxPoint x="310" y="-50" as="offset"/>
                    </mxGeometry>
                </mxCell>
                <mxCell id="951" value="" style="html=1;shadow=0;dashed=0;shape=mxgraph.bootstrap.rrect;rSize=5;strokeColor=#DFDFDF;html=1;whiteSpace=wrap;fillColor=#FFFFFF;fontColor=#000000;" vertex="1" parent="927">
                    <mxGeometry x="45" y="440" width="505" height="170" as="geometry"/>
                </mxCell>
                <mxCell id="952" value="Title-1" style="html=1;shadow=0;dashed=0;shape=mxgraph.bootstrap.topButton;strokeColor=inherit;fillColor=#F7F7F7;rSize=5;perimeter=none;whiteSpace=wrap;resizeWidth=1;align=left;spacing=20;fontSize=14;" vertex="1" parent="951">
                    <mxGeometry width="505" height="40" relative="1" as="geometry"/>
                </mxCell>
                <mxCell id="953" value="&lt;b&gt;&lt;font style=&quot;font-size: 20px&quot;&gt;Special title treatment&lt;/font&gt;&lt;/b&gt;&lt;br style=&quot;font-size: 14px&quot;&gt;&lt;br style=&quot;font-size: 14px&quot;&gt;With supporting text below as a natural lead-in to additional content." style="perimeter=none;html=1;whiteSpace=wrap;fillColor=none;strokeColor=none;resizeWidth=1;verticalAlign=top;align=left;spacing=20;spacingTop=-10;fontSize=14;" vertex="1" parent="951">
                    <mxGeometry width="505" height="120" relative="1" as="geometry">
                        <mxPoint y="40" as="offset"/>
                    </mxGeometry>
                </mxCell>
                <mxCell id="954" value="View" style="html=1;shadow=0;dashed=0;shape=mxgraph.bootstrap.rrect;rSize=5;strokeColor=#0085FC;strokeWidth=1;fillColor=none;fontColor=#0085FC;whiteSpace=wrap;align=center;verticalAlign=middle;spacingLeft=0;fontStyle=0;fontSize=16;spacing=5;" vertex="1" parent="951">
                    <mxGeometry x="310" y="120" width="140" height="40" as="geometry"/>
                </mxCell>
                <mxCell id="955" value="" style="html=1;shadow=0;dashed=0;shape=mxgraph.bootstrap.rrect;rSize=5;strokeColor=#DFDFDF;html=1;whiteSpace=wrap;fillColor=#FFFFFF;fontColor=#000000;" vertex="1" parent="927">
                    <mxGeometry x="45" y="630" width="505" height="170" as="geometry"/>
                </mxCell>
                <mxCell id="956" value="Title-1" style="html=1;shadow=0;dashed=0;shape=mxgraph.bootstrap.topButton;strokeColor=inherit;fillColor=#F7F7F7;rSize=5;perimeter=none;whiteSpace=wrap;resizeWidth=1;align=left;spacing=20;fontSize=14;" vertex="1" parent="955">
                    <mxGeometry width="505" height="40" relative="1" as="geometry"/>
                </mxCell>
                <mxCell id="957" value="&lt;b&gt;&lt;font style=&quot;font-size: 20px&quot;&gt;Special title treatment&lt;/font&gt;&lt;/b&gt;&lt;br style=&quot;font-size: 14px&quot;&gt;&lt;br style=&quot;font-size: 14px&quot;&gt;With supporting text below as a natural lead-in to additional content." style="perimeter=none;html=1;whiteSpace=wrap;fillColor=none;strokeColor=none;resizeWidth=1;verticalAlign=top;align=left;spacing=20;spacingTop=-10;fontSize=14;" vertex="1" parent="955">
                    <mxGeometry width="505" height="120" relative="1" as="geometry">
                        <mxPoint y="40" as="offset"/>
                    </mxGeometry>
                </mxCell>
                <mxCell id="958" value="View" style="html=1;shadow=0;dashed=0;shape=mxgraph.bootstrap.rrect;rSize=5;strokeColor=#0085FC;strokeWidth=1;fillColor=none;fontColor=#0085FC;whiteSpace=wrap;align=center;verticalAlign=middle;spacingLeft=0;fontStyle=0;fontSize=16;spacing=5;" vertex="1" parent="955">
                    <mxGeometry x="310" y="120" width="140" height="40" as="geometry"/>
                </mxCell>
                <mxCell id="959" value="" style="html=1;shadow=0;dashed=0;shape=mxgraph.bootstrap.rrect;rSize=5;strokeColor=#DFDFDF;html=1;whiteSpace=wrap;fillColor=#FFFFFF;fontColor=#000000;" vertex="1" parent="927">
                    <mxGeometry x="45" y="820" width="505" height="170" as="geometry"/>
                </mxCell>
                <mxCell id="960" value="Title-1" style="html=1;shadow=0;dashed=0;shape=mxgraph.bootstrap.topButton;strokeColor=inherit;fillColor=#F7F7F7;rSize=5;perimeter=none;whiteSpace=wrap;resizeWidth=1;align=left;spacing=20;fontSize=14;" vertex="1" parent="959">
                    <mxGeometry width="505" height="40" relative="1" as="geometry"/>
                </mxCell>
                <mxCell id="961" value="&lt;b&gt;&lt;font style=&quot;font-size: 20px&quot;&gt;Special title treatment&lt;/font&gt;&lt;/b&gt;&lt;br style=&quot;font-size: 14px&quot;&gt;&lt;br style=&quot;font-size: 14px&quot;&gt;With supporting text below as a natural lead-in to additional content." style="perimeter=none;html=1;whiteSpace=wrap;fillColor=none;strokeColor=none;resizeWidth=1;verticalAlign=top;align=left;spacing=20;spacingTop=-10;fontSize=14;" vertex="1" parent="959">
                    <mxGeometry width="505" height="120" relative="1" as="geometry">
                        <mxPoint y="40" as="offset"/>
                    </mxGeometry>
                </mxCell>
                <mxCell id="962" value="View" style="html=1;shadow=0;dashed=0;shape=mxgraph.bootstrap.rrect;rSize=5;strokeColor=#0085FC;strokeWidth=1;fillColor=none;fontColor=#0085FC;whiteSpace=wrap;align=center;verticalAlign=middle;spacingLeft=0;fontStyle=0;fontSize=16;spacing=5;" vertex="1" parent="959">
                    <mxGeometry x="310" y="120" width="140" height="40" as="geometry"/>
                </mxCell>
                <mxCell id="963" value="&lt;font style=&quot;font-size: 12px&quot;&gt;Add New Question&lt;/font&gt;" style="html=1;shadow=0;dashed=0;shape=mxgraph.bootstrap.rrect;rSize=5;strokeColor=none;strokeWidth=1;fillColor=#0085FC;fontColor=#FFFFFF;whiteSpace=wrap;align=center;verticalAlign=middle;spacingLeft=0;fontStyle=0;fontSize=16;spacing=5;" vertex="1" parent="927">
                    <mxGeometry x="575" y="240" width="155" height="40" as="geometry"/>
                </mxCell>
                <mxCell id="966" value="" style="strokeWidth=1;shadow=0;dashed=0;align=center;html=1;shape=mxgraph.mockup.containers.browserWindow;rSize=0;strokeColor=#666666;strokeColor2=#008cff;strokeColor3=#c4c4c4;mainText=,;recursiveResize=0;" vertex="1" parent="1">
                    <mxGeometry x="-1570" y="1110" width="750" height="730" as="geometry"/>
                </mxCell>
                <mxCell id="967" value="Assignmentscode-grade" style="strokeWidth=1;shadow=0;dashed=0;align=center;html=1;shape=mxgraph.mockup.containers.anchor;fontSize=17;fontColor=#666666;align=left;" vertex="1" parent="966">
                    <mxGeometry x="60" y="12" width="110" height="26" as="geometry"/>
                </mxCell>
                <mxCell id="968" value="https://www.code-grade.io/student/assignment/:id" style="strokeWidth=1;shadow=0;dashed=0;align=center;html=1;shape=mxgraph.mockup.containers.anchor;rSize=0;fontSize=17;fontColor=#666666;align=left;" vertex="1" parent="966">
                    <mxGeometry x="130" y="60" width="250" height="26" as="geometry"/>
                </mxCell>
                <mxCell id="969" value="" style="group" vertex="1" connectable="0" parent="966">
                    <mxGeometry y="110" width="750" height="60" as="geometry"/>
                </mxCell>
                <mxCell id="970" value="Code-grade" style="html=1;shadow=0;dashed=0;fillColor=#0085FC;strokeColor=none;fontSize=16;fontColor=#ffffff;align=left;spacing=15;" vertex="1" parent="969">
                    <mxGeometry width="750" height="60" as="geometry"/>
                </mxCell>
                <mxCell id="971" value="Home" style="fillColor=none;strokeColor=none;fontSize=14;align=center;fontStyle=1;fontColor=#79BFFD;" vertex="1" parent="970">
                    <mxGeometry width="70" height="40" relative="1" as="geometry">
                        <mxPoint x="140" y="10" as="offset"/>
                    </mxGeometry>
                </mxCell>
                <mxCell id="972" value="Questions" style="fillColor=none;strokeColor=none;fontSize=14;align=center;spacingRight=0;fontColor=#FFFFFF;fontStyle=1" vertex="1" parent="970">
                    <mxGeometry width="80" height="40" relative="1" as="geometry">
                        <mxPoint x="310" y="10" as="offset"/>
                    </mxGeometry>
                </mxCell>
                <mxCell id="973" value="Assignments" style="fillColor=none;strokeColor=none;fontSize=14;fontColor=#79BFFD;align=center;" vertex="1" parent="970">
                    <mxGeometry width="80" height="40" relative="1" as="geometry">
                        <mxPoint x="210" y="10" as="offset"/>
                    </mxGeometry>
                </mxCell>
                <mxCell id="974" value="" style="verticalLabelPosition=bottom;shadow=0;dashed=0;align=center;html=1;verticalAlign=top;strokeWidth=1;shape=mxgraph.mockup.containers.userMale;strokeColor2=#008cff;" vertex="1" parent="969">
                    <mxGeometry x="660" y="10" width="50" height="40" as="geometry"/>
                </mxCell>
                <mxCell id="975" value="" style="whiteSpace=wrap;html=1;shape=mxgraph.basic.oval_callout;fontColor=#FFFFFF;fillColor=#FFFFFF;" vertex="1" parent="969">
                    <mxGeometry x="595" y="15" width="40" height="30" as="geometry"/>
                </mxCell>
                <mxCell id="976" value="" style="group" vertex="1" connectable="0" parent="966">
                    <mxGeometry x="60" y="190" width="225" height="30" as="geometry"/>
                </mxCell>
                <mxCell id="977" value="" style="group" vertex="1" connectable="0" parent="976">
                    <mxGeometry x="-15" width="240" height="30" as="geometry"/>
                </mxCell>
                <mxCell id="978" value="Dashboard" style="strokeWidth=1;shadow=0;dashed=0;align=center;html=1;shape=mxgraph.mockup.navigation.anchor;fontSize=17;fontColor=#666666;fontStyle=1;fillColor=none;" vertex="1" parent="977">
                    <mxGeometry width="100" height="30" as="geometry"/>
                </mxCell>
                <mxCell id="979" value="&gt;" style="strokeWidth=1;shadow=0;dashed=0;align=center;html=1;shape=mxgraph.mockup.navigation.anchor;fontSize=24;fontColor=#aaaaaa;fontStyle=1;fillColor=none;" vertex="1" parent="977">
                    <mxGeometry x="100" width="20" height="30" as="geometry"/>
                </mxCell>
                <mxCell id="980" value="Question" style="strokeWidth=1;shadow=0;dashed=0;align=center;html=1;shape=mxgraph.mockup.navigation.anchor;fontSize=17;fontColor=#666666;fontStyle=1;fillColor=none;" vertex="1" parent="977">
                    <mxGeometry x="120" width="100" height="30" as="geometry"/>
                </mxCell>
                <mxCell id="981" value="&gt;" style="strokeWidth=1;shadow=0;dashed=0;align=center;html=1;shape=mxgraph.mockup.navigation.anchor;fontSize=24;fontColor=#aaaaaa;fontStyle=1;fillColor=none;" vertex="1" parent="977">
                    <mxGeometry x="220" width="20" height="30" as="geometry"/>
                </mxCell>
                <mxCell id="982" value="Question-x" style="strokeWidth=1;shadow=0;dashed=0;align=center;html=1;shape=mxgraph.mockup.navigation.anchor;fontSize=17;fontColor=#008cff;fontStyle=1;fillColor=none;" vertex="1" parent="966">
                    <mxGeometry x="290" y="190" width="110" height="30" as="geometry"/>
                </mxCell>
                <mxCell id="998" value="&lt;table border=&quot;0&quot; cellpadding=&quot;0&quot; cellspacing=&quot;0&quot; width=&quot;100%&quot; style=&quot;font-size: 1em&quot;&gt;&lt;tbody&gt;&lt;tr&gt;&lt;td width=&quot;25%&quot;&gt;&lt;font color=&quot;#007fff&quot;&gt;Info&lt;/font&gt;&lt;/td&gt;&lt;td width=&quot;25%&quot;&gt;Question&lt;/td&gt;&lt;td width=&quot;25%&quot;&gt;&lt;font color=&quot;#4d4d4d&quot;&gt;Solution&lt;/font&gt;&lt;/td&gt;&lt;td width=&quot;25%&quot;&gt;Summary&lt;/td&gt;&lt;/tr&gt;&lt;tr&gt;&lt;td&gt;&lt;/td&gt;&lt;/tr&gt;&lt;/tbody&gt;&lt;/table&gt;" style="strokeWidth=1;shadow=0;dashed=0;align=center;html=1;shape=mxgraph.mockup.navigation.stepBar;strokeColor=#c4c4c4;textColor=#666666;textColor2=#008cff;mainText=,,+,;textSize=17;fillColor=#666666;overflow=fill;fontSize=17;fontColor=#666666;" vertex="1" parent="966">
                    <mxGeometry x="150" y="240" width="300" height="50" as="geometry"/>
                </mxCell>
                <mxCell id="1023" value="" style="group" vertex="1" connectable="0" parent="966">
                    <mxGeometry x="60" y="300" width="590" height="320" as="geometry"/>
                </mxCell>
                <mxCell id="1012" value="Title" style="strokeWidth=1;shadow=0;dashed=0;align=left;html=1;shape=mxgraph.mockup.forms.anchor;align=right;spacingRight=2;fontColor=#666666;" vertex="1" parent="1023">
                    <mxGeometry width="73.75" height="19.200000000000003" as="geometry"/>
                </mxCell>
                <mxCell id="1013" value="john@jgraph.com" style="strokeWidth=1;shadow=0;dashed=0;align=center;html=1;shape=mxgraph.mockup.forms.rrect;fillColor=#ffffff;rSize=0;fontColor=#666666;align=left;spacingLeft=3;strokeColor=#999999;" vertex="1" parent="1023">
                    <mxGeometry x="73.75" width="516.25" height="19.200000000000003" as="geometry"/>
                </mxCell>
                <mxCell id="1014" value="Languages" style="strokeWidth=1;shadow=0;dashed=0;align=left;html=1;shape=mxgraph.mockup.forms.anchor;align=right;spacingRight=2;fontColor=#666666;" vertex="1" parent="1023">
                    <mxGeometry y="37.33333333333334" width="73.75" height="19.200000000000003" as="geometry"/>
                </mxCell>
                <mxCell id="1015" value="Greeting" style="strokeWidth=1;shadow=0;dashed=0;align=center;html=1;shape=mxgraph.mockup.forms.rrect;fillColor=#ffffff;rSize=0;fontColor=#666666;align=left;spacingLeft=3;strokeColor=#999999;" vertex="1" parent="1023">
                    <mxGeometry x="73.75" y="37.33333333333334" width="516.25" height="19.200000000000003" as="geometry"/>
                </mxCell>
                <mxCell id="1016" value="" style="strokeWidth=1;shadow=0;dashed=0;align=center;html=1;shape=mxgraph.mockup.forms.anchor;align=right;spacingRight=2;fontColor=#666666;" vertex="1" parent="1023">
                    <mxGeometry y="74.66666666666669" width="73.75" height="19.200000000000003" as="geometry"/>
                </mxCell>
                <mxCell id="1018" value="Points" style="strokeWidth=1;shadow=0;dashed=0;align=left;html=1;shape=mxgraph.mockup.forms.anchor;align=right;spacingRight=2;fontColor=#666666;" vertex="1" parent="1023">
                    <mxGeometry x="-10" y="70" width="73.75" height="19.200000000000003" as="geometry"/>
                </mxCell>
                <mxCell id="1019" value="" style="strokeWidth=1;shadow=0;dashed=0;align=center;html=1;shape=mxgraph.mockup.forms.rrect;fillColor=#ffffff;rSize=0;fontColor=#666666;align=left;spacingLeft=3;strokeColor=#999999;" vertex="1" parent="1023">
                    <mxGeometry x="73.75" y="70" width="516.25" height="19.200000000000003" as="geometry"/>
                </mxCell>
                <mxCell id="1022" value="Lorem ipsum dolor sit amet, consectetur adipisicing elit, sed do eiusmod tempor incididunt ut labore et dolore magna aliqua. Ut enim ad minim veniam, quis nostrud exercitation ullamco laboris nisi ut aliquip ex ea commodo consequat. Duis aute irure dolor in reprehenderit in voluptate velit esse cillum dolore eu fugiat nulla pariatur. Excepteur sint occaecat cupidatat non proident, sunt in culpa qui officia deserunt mollit anim id est laborum." style="strokeWidth=1;shadow=0;dashed=0;align=center;html=1;shape=mxgraph.mockup.forms.rrect;fillColor=#ffffff;rSize=0;fontColor=#666666;align=left;spacingLeft=3;strokeColor=#999999;verticalAlign=top;whiteSpace=wrap;" vertex="1" parent="1023">
                    <mxGeometry x="70" y="110" width="520" height="210" as="geometry"/>
                </mxCell>
                <mxCell id="1024" value="" style="html=1;shadow=0;dashed=0;shape=mxgraph.bootstrap.rrect;rSize=5;strokeColor=none;html=1;whiteSpace=wrap;fillColor=#6C767D;fontColor=#ffffff;" vertex="1" parent="966">
                    <mxGeometry x="240" y="650" width="180" height="30" as="geometry"/>
                </mxCell>
                <mxCell id="1025" value="&lt;font color=&quot;#b3b3b3&quot;&gt;Back&lt;/font&gt;" style="strokeColor=inherit;fillColor=inherit;gradientColor=inherit;fontColor=inherit;html=1;shadow=0;dashed=0;shape=mxgraph.bootstrap.leftButton;rSize=5;perimeter=none;whiteSpace=wrap;resizeHeight=1;" vertex="1" parent="1024">
                    <mxGeometry width="60" height="30" relative="1" as="geometry"/>
                </mxCell>
                <mxCell id="1026" value="" style="strokeColor=inherit;fillColor=inherit;gradientColor=inherit;fontColor=inherit;html=1;shadow=0;dashed=0;perimeter=none;whiteSpace=wrap;resizeHeight=1;" vertex="1" parent="1024">
                    <mxGeometry width="60" height="30" relative="1" as="geometry">
                        <mxPoint x="60" as="offset"/>
                    </mxGeometry>
                </mxCell>
                <mxCell id="1027" value="&lt;font color=&quot;#ffffff&quot;&gt;NEXT&lt;/font&gt;" style="strokeColor=inherit;fillColor=inherit;gradientColor=inherit;fontColor=inherit;html=1;shadow=0;dashed=0;shape=mxgraph.bootstrap.rightButton;rSize=5;perimeter=none;whiteSpace=wrap;resizeHeight=1;" vertex="1" parent="1024">
                    <mxGeometry x="1" width="60" height="30" relative="1" as="geometry">
                        <mxPoint x="-60" as="offset"/>
                    </mxGeometry>
                </mxCell>
                <mxCell id="1020" value="Note" style="strokeWidth=1;shadow=0;dashed=0;align=center;html=1;shape=mxgraph.mockup.forms.anchor;align=right;spacingRight=2;fontColor=#666666;" vertex="1" parent="966">
                    <mxGeometry x="56.25" y="390.0033333333334" width="73.75" height="19.200000000000003" as="geometry"/>
                </mxCell>
                <mxCell id="999" style="edgeStyle=orthogonalEdgeStyle;rounded=0;orthogonalLoop=1;jettySize=auto;html=1;fontColor=#FFFFFF;" edge="1" parent="1" source="857" target="966">
                    <mxGeometry relative="1" as="geometry"/>
                </mxCell>
                <mxCell id="1028" value="" style="strokeWidth=1;shadow=0;dashed=0;align=center;html=1;shape=mxgraph.mockup.containers.browserWindow;rSize=0;strokeColor=#666666;strokeColor2=#008cff;strokeColor3=#c4c4c4;mainText=,;recursiveResize=0;" vertex="1" parent="1">
                    <mxGeometry x="-1730" y="1850" width="750" height="730" as="geometry"/>
                </mxCell>
                <mxCell id="1029" value="Assignmentscode-grade" style="strokeWidth=1;shadow=0;dashed=0;align=center;html=1;shape=mxgraph.mockup.containers.anchor;fontSize=17;fontColor=#666666;align=left;" vertex="1" parent="1028">
                    <mxGeometry x="60" y="12" width="110" height="26" as="geometry"/>
                </mxCell>
                <mxCell id="1030" value="https://www.code-grade.io/student/assignment/:id" style="strokeWidth=1;shadow=0;dashed=0;align=center;html=1;shape=mxgraph.mockup.containers.anchor;rSize=0;fontSize=17;fontColor=#666666;align=left;" vertex="1" parent="1028">
                    <mxGeometry x="130" y="60" width="250" height="26" as="geometry"/>
                </mxCell>
                <mxCell id="1031" value="" style="group" vertex="1" connectable="0" parent="1028">
                    <mxGeometry y="110" width="750" height="60" as="geometry"/>
                </mxCell>
                <mxCell id="1032" value="Code-grade" style="html=1;shadow=0;dashed=0;fillColor=#0085FC;strokeColor=none;fontSize=16;fontColor=#ffffff;align=left;spacing=15;" vertex="1" parent="1031">
                    <mxGeometry width="750" height="60" as="geometry"/>
                </mxCell>
                <mxCell id="1033" value="Home" style="fillColor=none;strokeColor=none;fontSize=14;align=center;fontStyle=1;fontColor=#79BFFD;" vertex="1" parent="1032">
                    <mxGeometry width="70" height="40" relative="1" as="geometry">
                        <mxPoint x="140" y="10" as="offset"/>
                    </mxGeometry>
                </mxCell>
                <mxCell id="1034" value="Questions" style="fillColor=none;strokeColor=none;fontSize=14;align=center;spacingRight=0;fontColor=#FFFFFF;fontStyle=1" vertex="1" parent="1032">
                    <mxGeometry width="80" height="40" relative="1" as="geometry">
                        <mxPoint x="310" y="10" as="offset"/>
                    </mxGeometry>
                </mxCell>
                <mxCell id="1035" value="Assignments" style="fillColor=none;strokeColor=none;fontSize=14;fontColor=#79BFFD;align=center;" vertex="1" parent="1032">
                    <mxGeometry width="80" height="40" relative="1" as="geometry">
                        <mxPoint x="210" y="10" as="offset"/>
                    </mxGeometry>
                </mxCell>
                <mxCell id="1036" value="" style="verticalLabelPosition=bottom;shadow=0;dashed=0;align=center;html=1;verticalAlign=top;strokeWidth=1;shape=mxgraph.mockup.containers.userMale;strokeColor2=#008cff;" vertex="1" parent="1031">
                    <mxGeometry x="660" y="10" width="50" height="40" as="geometry"/>
                </mxCell>
                <mxCell id="1037" value="" style="whiteSpace=wrap;html=1;shape=mxgraph.basic.oval_callout;fontColor=#FFFFFF;fillColor=#FFFFFF;" vertex="1" parent="1031">
                    <mxGeometry x="595" y="15" width="40" height="30" as="geometry"/>
                </mxCell>
                <mxCell id="1038" value="" style="group" vertex="1" connectable="0" parent="1028">
                    <mxGeometry x="60" y="190" width="225" height="30" as="geometry"/>
                </mxCell>
                <mxCell id="1039" value="" style="group" vertex="1" connectable="0" parent="1038">
                    <mxGeometry x="-15" width="240" height="30" as="geometry"/>
                </mxCell>
                <mxCell id="1040" value="Dashboard" style="strokeWidth=1;shadow=0;dashed=0;align=center;html=1;shape=mxgraph.mockup.navigation.anchor;fontSize=17;fontColor=#666666;fontStyle=1;fillColor=none;" vertex="1" parent="1039">
                    <mxGeometry width="100" height="30" as="geometry"/>
                </mxCell>
                <mxCell id="1041" value="&gt;" style="strokeWidth=1;shadow=0;dashed=0;align=center;html=1;shape=mxgraph.mockup.navigation.anchor;fontSize=24;fontColor=#aaaaaa;fontStyle=1;fillColor=none;" vertex="1" parent="1039">
                    <mxGeometry x="100" width="20" height="30" as="geometry"/>
                </mxCell>
                <mxCell id="1042" value="Question" style="strokeWidth=1;shadow=0;dashed=0;align=center;html=1;shape=mxgraph.mockup.navigation.anchor;fontSize=17;fontColor=#666666;fontStyle=1;fillColor=none;" vertex="1" parent="1039">
                    <mxGeometry x="120" width="100" height="30" as="geometry"/>
                </mxCell>
                <mxCell id="1043" value="&gt;" style="strokeWidth=1;shadow=0;dashed=0;align=center;html=1;shape=mxgraph.mockup.navigation.anchor;fontSize=24;fontColor=#aaaaaa;fontStyle=1;fillColor=none;" vertex="1" parent="1039">
                    <mxGeometry x="220" width="20" height="30" as="geometry"/>
                </mxCell>
                <mxCell id="1044" value="Question-x" style="strokeWidth=1;shadow=0;dashed=0;align=center;html=1;shape=mxgraph.mockup.navigation.anchor;fontSize=17;fontColor=#008cff;fontStyle=1;fillColor=none;" vertex="1" parent="1028">
                    <mxGeometry x="290" y="190" width="110" height="30" as="geometry"/>
                </mxCell>
                <mxCell id="1045" value="&lt;table border=&quot;0&quot; cellpadding=&quot;0&quot; cellspacing=&quot;0&quot; width=&quot;100%&quot; style=&quot;font-size: 1em&quot;&gt;&lt;tbody&gt;&lt;tr&gt;&lt;td width=&quot;25%&quot;&gt;&lt;font color=&quot;#000000&quot;&gt;Info&lt;/font&gt;&lt;/td&gt;&lt;td width=&quot;25%&quot;&gt;&lt;font color=&quot;#007fff&quot;&gt;Question&lt;/font&gt;&lt;/td&gt;&lt;td width=&quot;25%&quot;&gt;&lt;font color=&quot;#4d4d4d&quot;&gt;Solution&lt;/font&gt;&lt;/td&gt;&lt;td width=&quot;25%&quot;&gt;Summary&lt;/td&gt;&lt;/tr&gt;&lt;tr&gt;&lt;td&gt;&lt;/td&gt;&lt;/tr&gt;&lt;/tbody&gt;&lt;/table&gt;" style="strokeWidth=1;shadow=0;dashed=0;align=center;html=1;shape=mxgraph.mockup.navigation.stepBar;strokeColor=#c4c4c4;textColor=#666666;textColor2=#008cff;mainText=,,+,;textSize=17;fillColor=#666666;overflow=fill;fontSize=17;fontColor=#666666;" vertex="1" parent="1028">
                    <mxGeometry x="150" y="240" width="300" height="50" as="geometry"/>
                </mxCell>
                <mxCell id="1046" value="" style="group" vertex="1" connectable="0" parent="1028">
                    <mxGeometry x="60" y="300" width="590" height="320" as="geometry"/>
                </mxCell>
                <mxCell id="1055" value="Add Question" style="strokeWidth=1;shadow=0;dashed=0;align=left;html=1;shape=mxgraph.mockup.forms.anchor;align=right;spacingRight=2;fontColor=#666666;" vertex="1" parent="1046">
                    <mxGeometry y="10.003333333333359" width="73.75" height="19.200000000000003" as="geometry"/>
                </mxCell>
                <mxCell id="1057" value="Lorem ipsum dolor sit amet, consectetur adipisicing elit, sed do eiusmod tempor incididunt ut labore et dolore magna aliqua. Ut enim ad minim veniam, quis nostrud exercitation ullamco laboris nisi ut aliquip ex ea commodo consequat. Duis aute irure dolor in reprehenderit in voluptate velit esse cillum dolore eu fugiat nulla pariatur. Excepteur sint occaecat cupidatat non proident, sunt in culpa qui officia deserunt mollit anim id est laborum." style="strokeWidth=1;shadow=0;dashed=0;align=center;html=1;shape=mxgraph.mockup.forms.rrect;fillColor=#ffffff;rSize=0;fontColor=#666666;align=left;spacingLeft=3;strokeColor=#999999;verticalAlign=top;whiteSpace=wrap;" vertex="1" parent="1046">
                    <mxGeometry y="30" width="590" height="290" as="geometry"/>
                </mxCell>
                <mxCell id="1058" value="" style="html=1;shadow=0;dashed=0;shape=mxgraph.bootstrap.rrect;rSize=5;strokeColor=none;html=1;whiteSpace=wrap;fillColor=#6C767D;fontColor=#ffffff;" vertex="1" parent="1028">
                    <mxGeometry x="240" y="650" width="180" height="30" as="geometry"/>
                </mxCell>
                <mxCell id="1059" value="&lt;font color=&quot;#ffffff&quot;&gt;Back&lt;/font&gt;" style="strokeColor=inherit;fillColor=inherit;gradientColor=inherit;fontColor=inherit;html=1;shadow=0;dashed=0;shape=mxgraph.bootstrap.leftButton;rSize=5;perimeter=none;whiteSpace=wrap;resizeHeight=1;" vertex="1" parent="1058">
                    <mxGeometry width="60" height="30" relative="1" as="geometry"/>
                </mxCell>
                <mxCell id="1060" value="&lt;font color=&quot;#b3b3b3&quot;&gt;Now&lt;/font&gt;" style="strokeColor=inherit;fillColor=inherit;gradientColor=inherit;fontColor=inherit;html=1;shadow=0;dashed=0;perimeter=none;whiteSpace=wrap;resizeHeight=1;" vertex="1" parent="1058">
                    <mxGeometry width="60" height="30" relative="1" as="geometry">
                        <mxPoint x="60" as="offset"/>
                    </mxGeometry>
                </mxCell>
                <mxCell id="1061" value="&lt;font color=&quot;#ffffff&quot;&gt;NEXT&lt;/font&gt;" style="strokeColor=inherit;fillColor=inherit;gradientColor=inherit;fontColor=inherit;html=1;shadow=0;dashed=0;shape=mxgraph.bootstrap.rightButton;rSize=5;perimeter=none;whiteSpace=wrap;resizeHeight=1;" vertex="1" parent="1058">
                    <mxGeometry x="1" width="60" height="30" relative="1" as="geometry">
                        <mxPoint x="-60" as="offset"/>
                    </mxGeometry>
                </mxCell>
                <mxCell id="1064" value="" style="strokeWidth=1;shadow=0;dashed=0;align=center;html=1;shape=mxgraph.mockup.containers.browserWindow;rSize=0;strokeColor=#666666;strokeColor2=#008cff;strokeColor3=#c4c4c4;mainText=,;recursiveResize=0;" vertex="1" parent="1">
                    <mxGeometry x="-2720" y="1960" width="750" height="740" as="geometry"/>
                </mxCell>
                <mxCell id="1065" value="Assignmentscode-grade" style="strokeWidth=1;shadow=0;dashed=0;align=center;html=1;shape=mxgraph.mockup.containers.anchor;fontSize=17;fontColor=#666666;align=left;" vertex="1" parent="1064">
                    <mxGeometry x="60" y="12" width="110" height="26" as="geometry"/>
                </mxCell>
                <mxCell id="1066" value="https://www.code-grade.io/student/assignment/:id" style="strokeWidth=1;shadow=0;dashed=0;align=center;html=1;shape=mxgraph.mockup.containers.anchor;rSize=0;fontSize=17;fontColor=#666666;align=left;" vertex="1" parent="1064">
                    <mxGeometry x="130" y="60" width="250" height="26" as="geometry"/>
                </mxCell>
                <mxCell id="1067" value="" style="group" vertex="1" connectable="0" parent="1064">
                    <mxGeometry y="110" width="750" height="60" as="geometry"/>
                </mxCell>
                <mxCell id="1068" value="Code-grade" style="html=1;shadow=0;dashed=0;fillColor=#0085FC;strokeColor=none;fontSize=16;fontColor=#ffffff;align=left;spacing=15;" vertex="1" parent="1067">
                    <mxGeometry width="750" height="60" as="geometry"/>
                </mxCell>
                <mxCell id="1069" value="Home" style="fillColor=none;strokeColor=none;fontSize=14;align=center;fontStyle=1;fontColor=#79BFFD;" vertex="1" parent="1068">
                    <mxGeometry width="70" height="40" relative="1" as="geometry">
                        <mxPoint x="140" y="10" as="offset"/>
                    </mxGeometry>
                </mxCell>
                <mxCell id="1070" value="Questions" style="fillColor=none;strokeColor=none;fontSize=14;align=center;spacingRight=0;fontColor=#FFFFFF;fontStyle=1" vertex="1" parent="1068">
                    <mxGeometry width="80" height="40" relative="1" as="geometry">
                        <mxPoint x="310" y="10" as="offset"/>
                    </mxGeometry>
                </mxCell>
                <mxCell id="1071" value="Assignments" style="fillColor=none;strokeColor=none;fontSize=14;fontColor=#79BFFD;align=center;" vertex="1" parent="1068">
                    <mxGeometry width="80" height="40" relative="1" as="geometry">
                        <mxPoint x="210" y="10" as="offset"/>
                    </mxGeometry>
                </mxCell>
                <mxCell id="1072" value="" style="verticalLabelPosition=bottom;shadow=0;dashed=0;align=center;html=1;verticalAlign=top;strokeWidth=1;shape=mxgraph.mockup.containers.userMale;strokeColor2=#008cff;" vertex="1" parent="1067">
                    <mxGeometry x="660" y="10" width="50" height="40" as="geometry"/>
                </mxCell>
                <mxCell id="1073" value="" style="whiteSpace=wrap;html=1;shape=mxgraph.basic.oval_callout;fontColor=#FFFFFF;fillColor=#FFFFFF;" vertex="1" parent="1067">
                    <mxGeometry x="595" y="15" width="40" height="30" as="geometry"/>
                </mxCell>
                <mxCell id="1074" value="" style="group" vertex="1" connectable="0" parent="1064">
                    <mxGeometry x="60" y="190" width="225" height="30" as="geometry"/>
                </mxCell>
                <mxCell id="1075" value="" style="group" vertex="1" connectable="0" parent="1074">
                    <mxGeometry x="-15" width="240" height="30" as="geometry"/>
                </mxCell>
                <mxCell id="1076" value="Dashboard" style="strokeWidth=1;shadow=0;dashed=0;align=center;html=1;shape=mxgraph.mockup.navigation.anchor;fontSize=17;fontColor=#666666;fontStyle=1;fillColor=none;" vertex="1" parent="1075">
                    <mxGeometry width="100" height="30" as="geometry"/>
                </mxCell>
                <mxCell id="1077" value="&gt;" style="strokeWidth=1;shadow=0;dashed=0;align=center;html=1;shape=mxgraph.mockup.navigation.anchor;fontSize=24;fontColor=#aaaaaa;fontStyle=1;fillColor=none;" vertex="1" parent="1075">
                    <mxGeometry x="100" width="20" height="30" as="geometry"/>
                </mxCell>
                <mxCell id="1078" value="Question" style="strokeWidth=1;shadow=0;dashed=0;align=center;html=1;shape=mxgraph.mockup.navigation.anchor;fontSize=17;fontColor=#666666;fontStyle=1;fillColor=none;" vertex="1" parent="1075">
                    <mxGeometry x="120" width="100" height="30" as="geometry"/>
                </mxCell>
                <mxCell id="1079" value="&gt;" style="strokeWidth=1;shadow=0;dashed=0;align=center;html=1;shape=mxgraph.mockup.navigation.anchor;fontSize=24;fontColor=#aaaaaa;fontStyle=1;fillColor=none;" vertex="1" parent="1075">
                    <mxGeometry x="220" width="20" height="30" as="geometry"/>
                </mxCell>
                <mxCell id="1080" value="Question-x" style="strokeWidth=1;shadow=0;dashed=0;align=center;html=1;shape=mxgraph.mockup.navigation.anchor;fontSize=17;fontColor=#008cff;fontStyle=1;fillColor=none;" vertex="1" parent="1064">
                    <mxGeometry x="290" y="190" width="110" height="30" as="geometry"/>
                </mxCell>
                <mxCell id="1081" value="&lt;table border=&quot;0&quot; cellpadding=&quot;0&quot; cellspacing=&quot;0&quot; width=&quot;100%&quot; style=&quot;font-size: 1em&quot;&gt;&lt;tbody&gt;&lt;tr&gt;&lt;td width=&quot;25%&quot;&gt;&lt;font color=&quot;#000000&quot;&gt;Info&lt;/font&gt;&lt;/td&gt;&lt;td width=&quot;25%&quot;&gt;&lt;font color=&quot;#000000&quot;&gt;Question&lt;/font&gt;&lt;/td&gt;&lt;td width=&quot;25%&quot;&gt;&lt;font color=&quot;#007fff&quot;&gt;Solution&lt;/font&gt;&lt;/td&gt;&lt;td width=&quot;25%&quot;&gt;Summary&lt;/td&gt;&lt;/tr&gt;&lt;tr&gt;&lt;td&gt;&lt;/td&gt;&lt;/tr&gt;&lt;/tbody&gt;&lt;/table&gt;" style="strokeWidth=1;shadow=0;dashed=0;align=center;html=1;shape=mxgraph.mockup.navigation.stepBar;strokeColor=#c4c4c4;textColor=#666666;textColor2=#008cff;mainText=,,+,;textSize=17;fillColor=#666666;overflow=fill;fontSize=17;fontColor=#666666;" vertex="1" parent="1064">
                    <mxGeometry x="150" y="240" width="300" height="50" as="geometry"/>
                </mxCell>
                <mxCell id="1082" value="" style="group" vertex="1" connectable="0" parent="1064">
                    <mxGeometry x="30" y="300" width="590" height="320" as="geometry"/>
                </mxCell>
                <mxCell id="1083" value="&lt;b&gt;Sample Solution&lt;/b&gt;" style="strokeWidth=1;shadow=0;dashed=0;align=left;html=1;shape=mxgraph.mockup.forms.anchor;align=right;spacingRight=2;fontColor=#666666;" vertex="1" parent="1082">
                    <mxGeometry y="10" width="120" height="19.2" as="geometry"/>
                </mxCell>
                <mxCell id="1126" value="" style="strokeWidth=1;shadow=0;dashed=0;align=left;html=1;shape=mxgraph.mockup.forms.anchor;align=right;spacingRight=2;fontColor=#666666;" vertex="1" parent="1082">
                    <mxGeometry x="370" y="160" width="50" height="18" as="geometry"/>
                </mxCell>
                <mxCell id="1124" value="Test case-3" style="strokeWidth=1;shadow=0;dashed=0;align=left;html=1;shape=mxgraph.mockup.forms.anchor;align=right;spacingRight=2;fontColor=#666666;" vertex="1" parent="1082">
                    <mxGeometry x="370" y="130" width="50" height="18" as="geometry"/>
                </mxCell>
                <mxCell id="1138" value="Test case-1" style="strokeWidth=1;shadow=0;dashed=0;align=left;html=1;shape=mxgraph.mockup.forms.anchor;align=right;spacingRight=2;fontColor=#666666;" vertex="1" parent="1082">
                    <mxGeometry x="370" y="70" width="50" height="18" as="geometry"/>
                </mxCell>
                <mxCell id="1139" value="Test case-4" style="strokeWidth=1;shadow=0;dashed=0;align=left;html=1;shape=mxgraph.mockup.forms.anchor;align=right;spacingRight=2;fontColor=#666666;" vertex="1" parent="1082">
                    <mxGeometry x="370" y="160" width="50" height="18" as="geometry"/>
                </mxCell>
                <mxCell id="1085" value="" style="html=1;shadow=0;dashed=0;shape=mxgraph.bootstrap.rrect;rSize=5;strokeColor=none;html=1;whiteSpace=wrap;fillColor=#6C767D;fontColor=#ffffff;" vertex="1" parent="1064">
                    <mxGeometry x="240" y="650" width="180" height="30" as="geometry"/>
                </mxCell>
                <mxCell id="1086" value="&lt;font color=&quot;#ffffff&quot;&gt;Back&lt;/font&gt;" style="strokeColor=inherit;fillColor=inherit;gradientColor=inherit;fontColor=inherit;html=1;shadow=0;dashed=0;shape=mxgraph.bootstrap.leftButton;rSize=5;perimeter=none;whiteSpace=wrap;resizeHeight=1;" vertex="1" parent="1085">
                    <mxGeometry width="60" height="30" relative="1" as="geometry"/>
                </mxCell>
                <mxCell id="1087" value="&lt;font color=&quot;#b3b3b3&quot;&gt;Now&lt;/font&gt;" style="strokeColor=inherit;fillColor=inherit;gradientColor=inherit;fontColor=inherit;html=1;shadow=0;dashed=0;perimeter=none;whiteSpace=wrap;resizeHeight=1;" vertex="1" parent="1085">
                    <mxGeometry width="60" height="30" relative="1" as="geometry">
                        <mxPoint x="60" as="offset"/>
                    </mxGeometry>
                </mxCell>
                <mxCell id="1088" value="&lt;font color=&quot;#ffffff&quot;&gt;NEXT&lt;/font&gt;" style="strokeColor=inherit;fillColor=inherit;gradientColor=inherit;fontColor=inherit;html=1;shadow=0;dashed=0;shape=mxgraph.bootstrap.rightButton;rSize=5;perimeter=none;whiteSpace=wrap;resizeHeight=1;" vertex="1" parent="1085">
                    <mxGeometry x="1" width="60" height="30" relative="1" as="geometry">
                        <mxPoint x="-60" as="offset"/>
                    </mxGeometry>
                </mxCell>
                <mxCell id="1121" value="" style="html=1;shadow=0;dashed=0;strokeColor=none;strokeWidth=1;fillColor=#777777;fontColor=#555555;whiteSpace=wrap;align=center;verticalAlign=middle;fontStyle=0;fontSize=40;" vertex="1" parent="1064">
                    <mxGeometry x="50" y="340" width="320" height="300" as="geometry"/>
                </mxCell>
                <mxCell id="1125" value="..." style="strokeWidth=1;shadow=0;dashed=0;align=left;html=1;shape=mxgraph.mockup.forms.rrect;fillColor=#ffffff;rSize=0;fontColor=#666666;align=left;spacingLeft=3;strokeColor=#999999;" vertex="1" parent="1064">
                    <mxGeometry x="450" y="430" width="260" height="18" as="geometry"/>
                </mxCell>
                <mxCell id="1133" value="..." style="strokeWidth=1;shadow=0;dashed=0;align=left;html=1;shape=mxgraph.mockup.forms.rrect;fillColor=#ffffff;rSize=0;fontColor=#666666;align=left;spacingLeft=3;strokeColor=#999999;" vertex="1" parent="1064">
                    <mxGeometry x="450" y="400" width="260" height="18" as="geometry"/>
                </mxCell>
                <mxCell id="1140" value="Add More" style="html=1;shadow=0;dashed=0;shape=mxgraph.bootstrap.rrect;rSize=5;strokeColor=#0085FC;strokeWidth=1;fillColor=none;fontColor=#0085FC;whiteSpace=wrap;align=center;verticalAlign=middle;spacingLeft=0;fontStyle=0;fontSize=16;spacing=5;" vertex="1" parent="1064">
                    <mxGeometry x="630" y="490" width="80" height="40" as="geometry"/>
                </mxCell>
                <mxCell id="1141" value="Test Case answers" style="html=1;shadow=0;dashed=0;shape=mxgraph.bootstrap.rrect;rSize=5;strokeColor=none;strokeWidth=1;fillColor=#F8F9FA;fontColor=#000000;whiteSpace=wrap;align=left;verticalAlign=middle;spacingLeft=0;fontStyle=1;fontSize=14;spacing=5;" vertex="1" parent="1064">
                    <mxGeometry x="400" y="340" width="210" height="20" as="geometry"/>
                </mxCell>
                <mxCell id="1134" value="..." style="strokeWidth=1;shadow=0;dashed=0;align=left;html=1;shape=mxgraph.mockup.forms.rrect;fillColor=#ffffff;rSize=0;fontColor=#666666;align=left;spacingLeft=3;strokeColor=#999999;" vertex="1" parent="1">
                    <mxGeometry x="-2270" y="2330" width="260" height="18" as="geometry"/>
                </mxCell>
                <mxCell id="1135" value="..." style="strokeWidth=1;shadow=0;dashed=0;align=left;html=1;shape=mxgraph.mockup.forms.rrect;fillColor=#ffffff;rSize=0;fontColor=#666666;align=left;spacingLeft=3;strokeColor=#999999;" vertex="1" parent="1">
                    <mxGeometry x="-2270" y="2420" width="260" height="18" as="geometry"/>
                </mxCell>
                <mxCell id="1136" value="Test case-2" style="strokeWidth=1;shadow=0;dashed=0;align=left;html=1;shape=mxgraph.mockup.forms.anchor;align=right;spacingRight=2;fontColor=#666666;" vertex="1" parent="1">
                    <mxGeometry x="-2320" y="2360" width="50" height="18" as="geometry"/>
                </mxCell>
                <mxCell id="1142" value="Text" style="text;html=1;align=center;verticalAlign=middle;resizable=0;points=[];autosize=1;fontColor=#FFFFFF;" vertex="1" parent="1">
                    <mxGeometry x="-1804" y="2490" width="40" height="20" as="geometry"/>
                </mxCell>
                <mxCell id="1143" value="" style="strokeWidth=1;shadow=0;dashed=0;align=center;html=1;shape=mxgraph.mockup.containers.browserWindow;rSize=0;strokeColor=#666666;strokeColor2=#008cff;strokeColor3=#c4c4c4;mainText=,;recursiveResize=0;" vertex="1" parent="1">
                    <mxGeometry x="-2710" y="2790" width="750" height="1060" as="geometry"/>
                </mxCell>
                <mxCell id="1144" value="Assignmentscode-grade" style="strokeWidth=1;shadow=0;dashed=0;align=center;html=1;shape=mxgraph.mockup.containers.anchor;fontSize=17;fontColor=#666666;align=left;" vertex="1" parent="1143">
                    <mxGeometry x="60" y="12" width="110" height="26" as="geometry"/>
                </mxCell>
                <mxCell id="1145" value="https://www.code-grade.io/student/assignment/:id" style="strokeWidth=1;shadow=0;dashed=0;align=center;html=1;shape=mxgraph.mockup.containers.anchor;rSize=0;fontSize=17;fontColor=#666666;align=left;" vertex="1" parent="1143">
                    <mxGeometry x="130" y="60" width="250" height="26" as="geometry"/>
                </mxCell>
                <mxCell id="1146" value="" style="group" vertex="1" connectable="0" parent="1143">
                    <mxGeometry y="110" width="750" height="60" as="geometry"/>
                </mxCell>
                <mxCell id="1147" value="Code-grade" style="html=1;shadow=0;dashed=0;fillColor=#0085FC;strokeColor=none;fontSize=16;fontColor=#ffffff;align=left;spacing=15;" vertex="1" parent="1146">
                    <mxGeometry width="750" height="60" as="geometry"/>
                </mxCell>
                <mxCell id="1148" value="Home" style="fillColor=none;strokeColor=none;fontSize=14;align=center;fontStyle=1;fontColor=#79BFFD;" vertex="1" parent="1147">
                    <mxGeometry width="70" height="40" relative="1" as="geometry">
                        <mxPoint x="140" y="10" as="offset"/>
                    </mxGeometry>
                </mxCell>
                <mxCell id="1149" value="Questions" style="fillColor=none;strokeColor=none;fontSize=14;align=center;spacingRight=0;fontColor=#FFFFFF;fontStyle=1" vertex="1" parent="1147">
                    <mxGeometry width="80" height="40" relative="1" as="geometry">
                        <mxPoint x="310" y="10" as="offset"/>
                    </mxGeometry>
                </mxCell>
                <mxCell id="1150" value="Assignments" style="fillColor=none;strokeColor=none;fontSize=14;fontColor=#79BFFD;align=center;" vertex="1" parent="1147">
                    <mxGeometry width="80" height="40" relative="1" as="geometry">
                        <mxPoint x="210" y="10" as="offset"/>
                    </mxGeometry>
                </mxCell>
                <mxCell id="1151" value="" style="verticalLabelPosition=bottom;shadow=0;dashed=0;align=center;html=1;verticalAlign=top;strokeWidth=1;shape=mxgraph.mockup.containers.userMale;strokeColor2=#008cff;" vertex="1" parent="1146">
                    <mxGeometry x="660" y="10" width="50" height="40" as="geometry"/>
                </mxCell>
                <mxCell id="1152" value="" style="whiteSpace=wrap;html=1;shape=mxgraph.basic.oval_callout;fontColor=#FFFFFF;fillColor=#FFFFFF;" vertex="1" parent="1146">
                    <mxGeometry x="595" y="15" width="40" height="30" as="geometry"/>
                </mxCell>
                <mxCell id="1153" value="" style="group" vertex="1" connectable="0" parent="1143">
                    <mxGeometry x="60" y="190" width="225" height="30" as="geometry"/>
                </mxCell>
                <mxCell id="1154" value="" style="group" vertex="1" connectable="0" parent="1153">
                    <mxGeometry x="-15" width="240" height="30" as="geometry"/>
                </mxCell>
                <mxCell id="1155" value="Dashboard" style="strokeWidth=1;shadow=0;dashed=0;align=center;html=1;shape=mxgraph.mockup.navigation.anchor;fontSize=17;fontColor=#666666;fontStyle=1;fillColor=none;" vertex="1" parent="1154">
                    <mxGeometry width="100" height="30" as="geometry"/>
                </mxCell>
                <mxCell id="1156" value="&gt;" style="strokeWidth=1;shadow=0;dashed=0;align=center;html=1;shape=mxgraph.mockup.navigation.anchor;fontSize=24;fontColor=#aaaaaa;fontStyle=1;fillColor=none;" vertex="1" parent="1154">
                    <mxGeometry x="100" width="20" height="30" as="geometry"/>
                </mxCell>
                <mxCell id="1157" value="Question" style="strokeWidth=1;shadow=0;dashed=0;align=center;html=1;shape=mxgraph.mockup.navigation.anchor;fontSize=17;fontColor=#666666;fontStyle=1;fillColor=none;" vertex="1" parent="1154">
                    <mxGeometry x="120" width="100" height="30" as="geometry"/>
                </mxCell>
                <mxCell id="1158" value="&gt;" style="strokeWidth=1;shadow=0;dashed=0;align=center;html=1;shape=mxgraph.mockup.navigation.anchor;fontSize=24;fontColor=#aaaaaa;fontStyle=1;fillColor=none;" vertex="1" parent="1154">
                    <mxGeometry x="220" width="20" height="30" as="geometry"/>
                </mxCell>
                <mxCell id="1159" value="Question-x" style="strokeWidth=1;shadow=0;dashed=0;align=center;html=1;shape=mxgraph.mockup.navigation.anchor;fontSize=17;fontColor=#008cff;fontStyle=1;fillColor=none;" vertex="1" parent="1143">
                    <mxGeometry x="290" y="190" width="110" height="30" as="geometry"/>
                </mxCell>
                <mxCell id="1160" value="&lt;table border=&quot;0&quot; cellpadding=&quot;0&quot; cellspacing=&quot;0&quot; width=&quot;100%&quot; style=&quot;font-size: 1em&quot;&gt;&lt;tbody&gt;&lt;tr&gt;&lt;td width=&quot;25%&quot;&gt;&lt;font color=&quot;#000000&quot;&gt;Info&lt;/font&gt;&lt;/td&gt;&lt;td width=&quot;25%&quot;&gt;&lt;font color=&quot;#000000&quot;&gt;Question&lt;/font&gt;&lt;/td&gt;&lt;td width=&quot;25%&quot;&gt;Solution&lt;br&gt;&lt;/td&gt;&lt;td width=&quot;25%&quot;&gt;&lt;span style=&quot;color: rgb(0 , 127 , 255)&quot;&gt;Summary&lt;/span&gt;&lt;/td&gt;&lt;/tr&gt;&lt;/tbody&gt;&lt;/table&gt;" style="strokeWidth=1;shadow=0;dashed=0;align=center;html=1;shape=mxgraph.mockup.navigation.stepBar;strokeColor=#c4c4c4;textColor=#666666;textColor2=#008cff;mainText=,,+,;textSize=17;fillColor=#666666;overflow=fill;fontSize=17;fontColor=#666666;" vertex="1" parent="1143">
                    <mxGeometry x="150" y="240" width="300" height="50" as="geometry"/>
                </mxCell>
                <mxCell id="1161" value="" style="group" vertex="1" connectable="0" parent="1143">
                    <mxGeometry x="30" y="300" width="590" height="320" as="geometry"/>
                </mxCell>
                <mxCell id="1162" value="&lt;b&gt;Sample Solution&lt;/b&gt;" style="strokeWidth=1;shadow=0;dashed=0;align=left;html=1;shape=mxgraph.mockup.forms.anchor;align=right;spacingRight=2;fontColor=#666666;" vertex="1" parent="1161">
                    <mxGeometry x="360" y="220" width="120" height="19.2" as="geometry"/>
                </mxCell>
                <mxCell id="1163" value="" style="strokeWidth=1;shadow=0;dashed=0;align=left;html=1;shape=mxgraph.mockup.forms.anchor;align=right;spacingRight=2;fontColor=#666666;" vertex="1" parent="1161">
                    <mxGeometry x="370" y="160" width="50" height="18" as="geometry"/>
                </mxCell>
                <mxCell id="1164" value="Test case-3" style="strokeWidth=1;shadow=0;dashed=0;align=left;html=1;shape=mxgraph.mockup.forms.anchor;align=right;spacingRight=2;fontColor=#666666;" vertex="1" parent="1161">
                    <mxGeometry x="370" y="130" width="50" height="18" as="geometry"/>
                </mxCell>
                <mxCell id="1165" value="Test case-1" style="strokeWidth=1;shadow=0;dashed=0;align=left;html=1;shape=mxgraph.mockup.forms.anchor;align=right;spacingRight=2;fontColor=#666666;" vertex="1" parent="1161">
                    <mxGeometry x="370" y="70" width="50" height="18" as="geometry"/>
                </mxCell>
                <mxCell id="1166" value="Test case-4" style="strokeWidth=1;shadow=0;dashed=0;align=left;html=1;shape=mxgraph.mockup.forms.anchor;align=right;spacingRight=2;fontColor=#666666;" vertex="1" parent="1161">
                    <mxGeometry x="370" y="160" width="50" height="18" as="geometry"/>
                </mxCell>
                <mxCell id="1178" value="Test case-2" style="strokeWidth=1;shadow=0;dashed=0;align=left;html=1;shape=mxgraph.mockup.forms.anchor;align=right;spacingRight=2;fontColor=#666666;" vertex="1" parent="1161">
                    <mxGeometry x="370" y="100" width="50" height="18" as="geometry"/>
                </mxCell>
                <mxCell id="1172" value="..." style="strokeWidth=1;shadow=0;dashed=0;align=left;html=1;shape=mxgraph.mockup.forms.rrect;fillColor=#ffffff;rSize=0;fontColor=#666666;align=left;spacingLeft=3;strokeColor=#999999;" vertex="1" parent="1143">
                    <mxGeometry x="450" y="430" width="260" height="18" as="geometry"/>
                </mxCell>
                <mxCell id="1173" value="..." style="strokeWidth=1;shadow=0;dashed=0;align=left;html=1;shape=mxgraph.mockup.forms.rrect;fillColor=#ffffff;rSize=0;fontColor=#666666;align=left;spacingLeft=3;strokeColor=#999999;" vertex="1" parent="1143">
                    <mxGeometry x="450" y="400" width="260" height="18" as="geometry"/>
                </mxCell>
                <mxCell id="1175" value="Test Case answers" style="html=1;shadow=0;dashed=0;shape=mxgraph.bootstrap.rrect;rSize=5;strokeColor=none;strokeWidth=1;fillColor=#F8F9FA;fontColor=#000000;whiteSpace=wrap;align=left;verticalAlign=middle;spacingLeft=0;fontStyle=1;fontSize=14;spacing=5;" vertex="1" parent="1143">
                    <mxGeometry x="400" y="340" width="210" height="20" as="geometry"/>
                </mxCell>
                <mxCell id="1184" value="" style="html=1;shadow=0;dashed=0;strokeColor=none;strokeWidth=1;fillColor=#777777;fontColor=#555555;whiteSpace=wrap;align=center;verticalAlign=middle;fontStyle=0;fontSize=40;" vertex="1" parent="1143">
                    <mxGeometry x="390" y="550" width="320" height="300" as="geometry"/>
                </mxCell>
                <mxCell id="1185" value="" style="group" vertex="1" connectable="0" parent="1143">
                    <mxGeometry x="30" y="330" width="335" height="520" as="geometry"/>
                </mxCell>
                <mxCell id="1186" value="Question" style="strokeWidth=1;shadow=0;dashed=0;align=left;html=1;shape=mxgraph.mockup.forms.anchor;align=right;spacingRight=2;fontColor=#666666;" vertex="1" parent="1185">
                    <mxGeometry y="16.25" width="50" height="31.2" as="geometry"/>
                </mxCell>
                <mxCell id="1187" value="Lorem ipsum dolor sit amet, consectetur adipisicing elit, sed do eiusmod tempor incididunt ut labore et dolore magna aliqua. Ut enim ad minim veniam, quis nostrud exercitation ullamco laboris nisi ut aliquip ex ea commodo consequat. Duis aute irure dolor in reprehenderit in voluptate velit esse cillum dolore eu fugiat nulla pariatur. Excepteur sint occaecat cupidatat non proident, sunt in culpa qui officia deserunt mollit anim id est laborum." style="strokeWidth=1;shadow=0;dashed=0;align=center;html=1;shape=mxgraph.mockup.forms.rrect;fillColor=#ffffff;rSize=0;fontColor=#666666;align=left;spacingLeft=3;strokeColor=#999999;verticalAlign=top;whiteSpace=wrap;" vertex="1" parent="1185">
                    <mxGeometry y="48.75" width="335" height="471.25" as="geometry"/>
                </mxCell>
                <mxCell id="1167" value="" style="html=1;shadow=0;dashed=0;shape=mxgraph.bootstrap.rrect;rSize=5;strokeColor=none;html=1;whiteSpace=wrap;fillColor=#6C767D;fontColor=#ffffff;" vertex="1" parent="1143">
                    <mxGeometry x="250" y="920" width="180" height="30" as="geometry"/>
                </mxCell>
                <mxCell id="1168" value="&lt;font color=&quot;#ffffff&quot;&gt;Back&lt;/font&gt;" style="strokeColor=inherit;fillColor=inherit;gradientColor=inherit;fontColor=inherit;html=1;shadow=0;dashed=0;shape=mxgraph.bootstrap.leftButton;rSize=5;perimeter=none;whiteSpace=wrap;resizeHeight=1;" vertex="1" parent="1167">
                    <mxGeometry width="60" height="30" relative="1" as="geometry"/>
                </mxCell>
                <mxCell id="1169" value="&lt;font color=&quot;#b3b3b3&quot;&gt;Now&lt;/font&gt;" style="strokeColor=inherit;fillColor=inherit;gradientColor=inherit;fontColor=inherit;html=1;shadow=0;dashed=0;perimeter=none;whiteSpace=wrap;resizeHeight=1;" vertex="1" parent="1167">
                    <mxGeometry width="60" height="30" relative="1" as="geometry">
                        <mxPoint x="60" as="offset"/>
                    </mxGeometry>
                </mxCell>
                <mxCell id="1170" value="&lt;font color=&quot;#b3b3b3&quot;&gt;NEXT&lt;/font&gt;" style="strokeColor=inherit;fillColor=inherit;gradientColor=inherit;fontColor=inherit;html=1;shadow=0;dashed=0;shape=mxgraph.bootstrap.rightButton;rSize=5;perimeter=none;whiteSpace=wrap;resizeHeight=1;" vertex="1" parent="1167">
                    <mxGeometry x="1" width="60" height="30" relative="1" as="geometry">
                        <mxPoint x="-60" as="offset"/>
                    </mxGeometry>
                </mxCell>
                <mxCell id="1188" value="Submit" style="html=1;shadow=0;dashed=0;shape=mxgraph.bootstrap.rrect;rSize=5;strokeColor=none;strokeWidth=1;fillColor=#33A64C;fontColor=#FFFFFF;whiteSpace=wrap;align=center;verticalAlign=middle;spacingLeft=0;fontStyle=1;fontSize=14;spacing=5;" vertex="1" parent="1143">
                    <mxGeometry x="390" y="880" width="320" height="20" as="geometry"/>
                </mxCell>
                <mxCell id="1176" value="..." style="strokeWidth=1;shadow=0;dashed=0;align=left;html=1;shape=mxgraph.mockup.forms.rrect;fillColor=#ffffff;rSize=0;fontColor=#666666;align=left;spacingLeft=3;strokeColor=#999999;" vertex="1" parent="1">
                    <mxGeometry x="-2260" y="3160" width="260" height="18" as="geometry"/>
                </mxCell>
                <mxCell id="1177" value="..." style="strokeWidth=1;shadow=0;dashed=0;align=left;html=1;shape=mxgraph.mockup.forms.rrect;fillColor=#ffffff;rSize=0;fontColor=#666666;align=left;spacingLeft=3;strokeColor=#999999;" vertex="1" parent="1">
                    <mxGeometry x="-2260" y="3250" width="260" height="18" as="geometry"/>
                </mxCell>
                <mxCell id="1189" value="" style="strokeWidth=1;shadow=0;dashed=0;align=center;html=1;shape=mxgraph.mockup.containers.browserWindow;rSize=0;strokeColor=#666666;strokeColor2=#008cff;strokeColor3=#c4c4c4;mainText=,;recursiveResize=0;" vertex="1" parent="1">
                    <mxGeometry x="-2840" y="1130" width="750" height="730" as="geometry"/>
                </mxCell>
                <mxCell id="1190" value="Assignmentscode-grade" style="strokeWidth=1;shadow=0;dashed=0;align=center;html=1;shape=mxgraph.mockup.containers.anchor;fontSize=17;fontColor=#666666;align=left;" vertex="1" parent="1189">
                    <mxGeometry x="60" y="12" width="110" height="26" as="geometry"/>
                </mxCell>
                <mxCell id="1191" value="https://www.code-grade.io/student/assignment/:id" style="strokeWidth=1;shadow=0;dashed=0;align=center;html=1;shape=mxgraph.mockup.containers.anchor;rSize=0;fontSize=17;fontColor=#666666;align=left;" vertex="1" parent="1189">
                    <mxGeometry x="130" y="60" width="250" height="26" as="geometry"/>
                </mxCell>
                <mxCell id="1192" value="" style="group" vertex="1" connectable="0" parent="1189">
                    <mxGeometry y="110" width="750" height="60" as="geometry"/>
                </mxCell>
                <mxCell id="1193" value="Code-grade" style="html=1;shadow=0;dashed=0;fillColor=#0085FC;strokeColor=none;fontSize=16;fontColor=#ffffff;align=left;spacing=15;" vertex="1" parent="1192">
                    <mxGeometry width="750" height="60" as="geometry"/>
                </mxCell>
                <mxCell id="1194" value="Home" style="fillColor=none;strokeColor=none;fontSize=14;align=center;fontStyle=1;fontColor=#79BFFD;" vertex="1" parent="1193">
                    <mxGeometry width="70" height="40" relative="1" as="geometry">
                        <mxPoint x="140" y="10" as="offset"/>
                    </mxGeometry>
                </mxCell>
                <mxCell id="1195" value="Questions" style="fillColor=none;strokeColor=none;fontSize=14;align=center;spacingRight=0;fontStyle=1;fontColor=#66B2FF;" vertex="1" parent="1193">
                    <mxGeometry width="80" height="40" relative="1" as="geometry">
                        <mxPoint x="310" y="10" as="offset"/>
                    </mxGeometry>
                </mxCell>
                <mxCell id="1196" value="Assignments" style="fillColor=none;strokeColor=none;fontSize=14;align=center;fontColor=#FFFFFF;" vertex="1" parent="1193">
                    <mxGeometry width="80" height="40" relative="1" as="geometry">
                        <mxPoint x="210" y="10" as="offset"/>
                    </mxGeometry>
                </mxCell>
                <mxCell id="1197" value="" style="verticalLabelPosition=bottom;shadow=0;dashed=0;align=center;html=1;verticalAlign=top;strokeWidth=1;shape=mxgraph.mockup.containers.userMale;strokeColor2=#008cff;" vertex="1" parent="1192">
                    <mxGeometry x="660" y="10" width="50" height="40" as="geometry"/>
                </mxCell>
                <mxCell id="1198" value="" style="whiteSpace=wrap;html=1;shape=mxgraph.basic.oval_callout;fontColor=#FFFFFF;fillColor=#FFFFFF;" vertex="1" parent="1192">
                    <mxGeometry x="595" y="15" width="40" height="30" as="geometry"/>
                </mxCell>
                <mxCell id="1199" value="" style="group" vertex="1" connectable="0" parent="1189">
                    <mxGeometry x="60" y="190" width="225" height="30" as="geometry"/>
                </mxCell>
                <mxCell id="1200" value="" style="group" vertex="1" connectable="0" parent="1199">
                    <mxGeometry x="-15" width="240" height="30" as="geometry"/>
                </mxCell>
                <mxCell id="1201" value="Dashboard" style="strokeWidth=1;shadow=0;dashed=0;align=center;html=1;shape=mxgraph.mockup.navigation.anchor;fontSize=17;fontColor=#666666;fontStyle=1;fillColor=none;" vertex="1" parent="1200">
                    <mxGeometry width="100" height="30" as="geometry"/>
                </mxCell>
                <mxCell id="1202" value="&gt;" style="strokeWidth=1;shadow=0;dashed=0;align=center;html=1;shape=mxgraph.mockup.navigation.anchor;fontSize=24;fontColor=#aaaaaa;fontStyle=1;fillColor=none;" vertex="1" parent="1200">
                    <mxGeometry x="100" width="20" height="30" as="geometry"/>
                </mxCell>
                <mxCell id="1203" value="Assignment" style="strokeWidth=1;shadow=0;dashed=0;align=center;html=1;shape=mxgraph.mockup.navigation.anchor;fontSize=17;fontColor=#666666;fontStyle=1;fillColor=none;" vertex="1" parent="1200">
                    <mxGeometry x="120" width="100" height="30" as="geometry"/>
                </mxCell>
                <mxCell id="1204" value="&gt;" style="strokeWidth=1;shadow=0;dashed=0;align=center;html=1;shape=mxgraph.mockup.navigation.anchor;fontSize=24;fontColor=#aaaaaa;fontStyle=1;fillColor=none;" vertex="1" parent="1200">
                    <mxGeometry x="220" width="20" height="30" as="geometry"/>
                </mxCell>
                <mxCell id="1205" value="Question-x" style="strokeWidth=1;shadow=0;dashed=0;align=center;html=1;shape=mxgraph.mockup.navigation.anchor;fontSize=17;fontColor=#008cff;fontStyle=1;fillColor=none;" vertex="1" parent="1189">
                    <mxGeometry x="290" y="190" width="110" height="30" as="geometry"/>
                </mxCell>
                <mxCell id="1206" value="&lt;table border=&quot;0&quot; cellpadding=&quot;0&quot; cellspacing=&quot;0&quot; width=&quot;100%&quot; style=&quot;font-size: 1em&quot;&gt;&lt;tbody&gt;&lt;tr&gt;&lt;td width=&quot;25%&quot;&gt;&lt;font color=&quot;#007fff&quot;&gt;Info&lt;/font&gt;&lt;/td&gt;&lt;td width=&quot;25%&quot;&gt;Questions&lt;/td&gt;&lt;td width=&quot;25%&quot;&gt;&lt;font color=&quot;#4d4d4d&quot;&gt;Students&lt;/font&gt;&lt;/td&gt;&lt;td width=&quot;25%&quot;&gt;Summary&lt;/td&gt;&lt;/tr&gt;&lt;tr&gt;&lt;td&gt;&lt;/td&gt;&lt;/tr&gt;&lt;/tbody&gt;&lt;/table&gt;" style="strokeWidth=1;shadow=0;dashed=0;align=center;html=1;shape=mxgraph.mockup.navigation.stepBar;strokeColor=#c4c4c4;textColor=#666666;textColor2=#008cff;mainText=,,+,;textSize=17;fillColor=#666666;overflow=fill;fontSize=17;fontColor=#666666;" vertex="1" parent="1189">
                    <mxGeometry x="150" y="240" width="300" height="50" as="geometry"/>
                </mxCell>
                <mxCell id="1207" value="" style="group" vertex="1" connectable="0" parent="1189">
                    <mxGeometry x="60" y="300" width="590" height="320" as="geometry"/>
                </mxCell>
                <mxCell id="1208" value="Title" style="strokeWidth=1;shadow=0;dashed=0;align=left;html=1;shape=mxgraph.mockup.forms.anchor;align=right;spacingRight=2;fontColor=#666666;" vertex="1" parent="1207">
                    <mxGeometry width="73.75" height="19.200000000000003" as="geometry"/>
                </mxCell>
                <mxCell id="1209" value="john@jgraph.com" style="strokeWidth=1;shadow=0;dashed=0;align=center;html=1;shape=mxgraph.mockup.forms.rrect;fillColor=#ffffff;rSize=0;fontColor=#666666;align=left;spacingLeft=3;strokeColor=#999999;" vertex="1" parent="1207">
                    <mxGeometry x="73.75" width="516.25" height="19.200000000000003" as="geometry"/>
                </mxCell>
                <mxCell id="1211" value="Greeting" style="strokeWidth=1;shadow=0;dashed=0;align=center;html=1;shape=mxgraph.mockup.forms.rrect;fillColor=#ffffff;rSize=0;fontColor=#666666;align=left;spacingLeft=3;strokeColor=#999999;" vertex="1" parent="1207">
                    <mxGeometry x="73.75" y="37.33333333333334" width="516.25" height="19.200000000000003" as="geometry"/>
                </mxCell>
                <mxCell id="1212" value="" style="strokeWidth=1;shadow=0;dashed=0;align=center;html=1;shape=mxgraph.mockup.forms.anchor;align=right;spacingRight=2;fontColor=#666666;" vertex="1" parent="1207">
                    <mxGeometry y="74.66666666666669" width="73.75" height="19.200000000000003" as="geometry"/>
                </mxCell>
                <mxCell id="1213" value="Starts At" style="strokeWidth=1;shadow=0;dashed=0;align=left;html=1;shape=mxgraph.mockup.forms.anchor;align=right;spacingRight=2;fontColor=#666666;" vertex="1" parent="1207">
                    <mxGeometry x="-10" y="70" width="73.75" height="19.200000000000003" as="geometry"/>
                </mxCell>
                <mxCell id="1214" value="" style="strokeWidth=1;shadow=0;dashed=0;align=center;html=1;shape=mxgraph.mockup.forms.rrect;fillColor=#ffffff;rSize=0;fontColor=#666666;align=left;spacingLeft=3;strokeColor=#999999;" vertex="1" parent="1207">
                    <mxGeometry x="73.75" y="70" width="516.25" height="19.200000000000003" as="geometry"/>
                </mxCell>
                <mxCell id="1215" value="Lorem ipsum dolor sit amet, consectetur adipisicing elit, sed do eiusmod tempor incididunt ut labore et dolore magna aliqua. Ut enim ad minim veniam, quis nostrud exercitation ullamco laboris nisi ut aliquip ex ea commodo consequat. Duis aute irure dolor in reprehenderit in voluptate velit esse cillum dolore eu fugiat nulla pariatur. Excepteur sint occaecat cupidatat non proident, sunt in culpa qui officia deserunt mollit anim id est laborum." style="strokeWidth=1;shadow=0;dashed=0;align=center;html=1;shape=mxgraph.mockup.forms.rrect;fillColor=#ffffff;rSize=0;fontColor=#666666;align=left;spacingLeft=3;strokeColor=#999999;verticalAlign=top;whiteSpace=wrap;" vertex="1" parent="1207">
                    <mxGeometry x="70" y="190" width="520" height="130" as="geometry"/>
                </mxCell>
                <mxCell id="1222" value="Ends At" style="strokeWidth=1;shadow=0;dashed=0;align=left;html=1;shape=mxgraph.mockup.forms.anchor;align=right;spacingRight=2;fontColor=#666666;" vertex="1" parent="1207">
                    <mxGeometry x="-3.75" y="100" width="73.75" height="19.200000000000003" as="geometry"/>
                </mxCell>
                <mxCell id="1233" value="" style="html=1;shadow=0;dashed=0;shape=mxgraph.bootstrap.checkbox2;labelPosition=right;verticalLabelPosition=middle;align=left;verticalAlign=middle;gradientColor=#DEDEDE;fillColor=#EDEDED;checked=1;spacing=5;checkedFill=#0085FC;checkedStroke=#ffffff;fontColor=#66B2FF;" vertex="1" parent="1207">
                    <mxGeometry x="73.75" y="140" width="10" height="10" as="geometry"/>
                </mxCell>
                <mxCell id="1216" value="" style="html=1;shadow=0;dashed=0;shape=mxgraph.bootstrap.rrect;rSize=5;strokeColor=none;html=1;whiteSpace=wrap;fillColor=#6C767D;fontColor=#ffffff;" vertex="1" parent="1189">
                    <mxGeometry x="240" y="650" width="180" height="30" as="geometry"/>
                </mxCell>
                <mxCell id="1217" value="&lt;font color=&quot;#b3b3b3&quot;&gt;Back&lt;/font&gt;" style="strokeColor=inherit;fillColor=inherit;gradientColor=inherit;fontColor=inherit;html=1;shadow=0;dashed=0;shape=mxgraph.bootstrap.leftButton;rSize=5;perimeter=none;whiteSpace=wrap;resizeHeight=1;" vertex="1" parent="1216">
                    <mxGeometry width="60" height="30" relative="1" as="geometry"/>
                </mxCell>
                <mxCell id="1218" value="" style="strokeColor=inherit;fillColor=inherit;gradientColor=inherit;fontColor=inherit;html=1;shadow=0;dashed=0;perimeter=none;whiteSpace=wrap;resizeHeight=1;" vertex="1" parent="1216">
                    <mxGeometry width="60" height="30" relative="1" as="geometry">
                        <mxPoint x="60" as="offset"/>
                    </mxGeometry>
                </mxCell>
                <mxCell id="1219" value="&lt;font color=&quot;#ffffff&quot;&gt;NEXT&lt;/font&gt;" style="strokeColor=inherit;fillColor=inherit;gradientColor=inherit;fontColor=inherit;html=1;shadow=0;dashed=0;shape=mxgraph.bootstrap.rightButton;rSize=5;perimeter=none;whiteSpace=wrap;resizeHeight=1;" vertex="1" parent="1216">
                    <mxGeometry x="1" width="60" height="30" relative="1" as="geometry">
                        <mxPoint x="-60" as="offset"/>
                    </mxGeometry>
                </mxCell>
                <mxCell id="1220" value="Note" style="strokeWidth=1;shadow=0;dashed=0;align=center;html=1;shape=mxgraph.mockup.forms.anchor;align=right;spacingRight=2;fontColor=#666666;" vertex="1" parent="1189">
                    <mxGeometry x="40" y="490.0033333333334" width="73.75" height="19.200000000000003" as="geometry"/>
                </mxCell>
                <mxCell id="1210" value="Number of &lt;br&gt;Questions" style="strokeWidth=1;shadow=0;dashed=0;align=left;html=1;shape=mxgraph.mockup.forms.anchor;align=right;spacingRight=2;fontColor=#666666;" vertex="1" parent="1189">
                    <mxGeometry x="60" y="337.33" width="70" height="32.67" as="geometry"/>
                </mxCell>
                <mxCell id="1221" value="" style="strokeWidth=1;shadow=0;dashed=0;align=center;html=1;shape=mxgraph.mockup.forms.rrect;fillColor=#ffffff;rSize=0;fontColor=#666666;align=left;spacingLeft=3;strokeColor=#999999;" vertex="1" parent="1189">
                    <mxGeometry x="133.75" y="400" width="516.25" height="19.200000000000003" as="geometry"/>
                </mxCell>
                <mxCell id="1235" value="Is private" style="strokeWidth=1;shadow=0;dashed=0;align=left;html=1;shape=mxgraph.mockup.forms.anchor;align=right;spacingRight=2;fontColor=#666666;" vertex="1" parent="1189">
                    <mxGeometry x="56.25" y="430" width="73.75" height="19.200000000000003" as="geometry"/>
                </mxCell>
                <mxCell id="1237" value="" style="strokeWidth=1;shadow=0;dashed=0;align=center;html=1;shape=mxgraph.mockup.containers.browserWindow;rSize=0;strokeColor=#666666;strokeColor2=#008cff;strokeColor3=#c4c4c4;mainText=,;recursiveResize=0;" vertex="1" parent="1">
                    <mxGeometry x="-3610" y="1140" width="750" height="730" as="geometry"/>
                </mxCell>
                <mxCell id="1238" value="Assignmentscode-grade" style="strokeWidth=1;shadow=0;dashed=0;align=center;html=1;shape=mxgraph.mockup.containers.anchor;fontSize=17;fontColor=#666666;align=left;" vertex="1" parent="1237">
                    <mxGeometry x="60" y="12" width="110" height="26" as="geometry"/>
                </mxCell>
                <mxCell id="1239" value="https://www.code-grade.io/student/assignment/:id" style="strokeWidth=1;shadow=0;dashed=0;align=center;html=1;shape=mxgraph.mockup.containers.anchor;rSize=0;fontSize=17;fontColor=#666666;align=left;" vertex="1" parent="1237">
                    <mxGeometry x="130" y="60" width="250" height="26" as="geometry"/>
                </mxCell>
                <mxCell id="1240" value="" style="group" vertex="1" connectable="0" parent="1237">
                    <mxGeometry y="110" width="750" height="60" as="geometry"/>
                </mxCell>
                <mxCell id="1241" value="Code-grade" style="html=1;shadow=0;dashed=0;fillColor=#0085FC;strokeColor=none;fontSize=16;fontColor=#ffffff;align=left;spacing=15;" vertex="1" parent="1240">
                    <mxGeometry width="750" height="60" as="geometry"/>
                </mxCell>
                <mxCell id="1242" value="Home" style="fillColor=none;strokeColor=none;fontSize=14;align=center;fontStyle=1;fontColor=#79BFFD;" vertex="1" parent="1241">
                    <mxGeometry width="70" height="40" relative="1" as="geometry">
                        <mxPoint x="140" y="10" as="offset"/>
                    </mxGeometry>
                </mxCell>
                <mxCell id="1243" value="Questions" style="fillColor=none;strokeColor=none;fontSize=14;align=center;spacingRight=0;fontStyle=1;fontColor=#66B2FF;" vertex="1" parent="1241">
                    <mxGeometry width="80" height="40" relative="1" as="geometry">
                        <mxPoint x="310" y="10" as="offset"/>
                    </mxGeometry>
                </mxCell>
                <mxCell id="1244" value="Assignments" style="fillColor=none;strokeColor=none;fontSize=14;align=center;fontColor=#FFFFFF;" vertex="1" parent="1241">
                    <mxGeometry width="80" height="40" relative="1" as="geometry">
                        <mxPoint x="210" y="10" as="offset"/>
                    </mxGeometry>
                </mxCell>
                <mxCell id="1245" value="" style="verticalLabelPosition=bottom;shadow=0;dashed=0;align=center;html=1;verticalAlign=top;strokeWidth=1;shape=mxgraph.mockup.containers.userMale;strokeColor2=#008cff;" vertex="1" parent="1240">
                    <mxGeometry x="660" y="10" width="50" height="40" as="geometry"/>
                </mxCell>
                <mxCell id="1246" value="" style="whiteSpace=wrap;html=1;shape=mxgraph.basic.oval_callout;fontColor=#FFFFFF;fillColor=#FFFFFF;" vertex="1" parent="1240">
                    <mxGeometry x="595" y="15" width="40" height="30" as="geometry"/>
                </mxCell>
                <mxCell id="1247" value="" style="group" vertex="1" connectable="0" parent="1237">
                    <mxGeometry x="60" y="190" width="225" height="30" as="geometry"/>
                </mxCell>
                <mxCell id="1248" value="" style="group" vertex="1" connectable="0" parent="1247">
                    <mxGeometry x="-15" width="240" height="30" as="geometry"/>
                </mxCell>
                <mxCell id="1249" value="Dashboard" style="strokeWidth=1;shadow=0;dashed=0;align=center;html=1;shape=mxgraph.mockup.navigation.anchor;fontSize=17;fontColor=#666666;fontStyle=1;fillColor=none;" vertex="1" parent="1248">
                    <mxGeometry width="100" height="30" as="geometry"/>
                </mxCell>
                <mxCell id="1250" value="&gt;" style="strokeWidth=1;shadow=0;dashed=0;align=center;html=1;shape=mxgraph.mockup.navigation.anchor;fontSize=24;fontColor=#aaaaaa;fontStyle=1;fillColor=none;" vertex="1" parent="1248">
                    <mxGeometry x="100" width="20" height="30" as="geometry"/>
                </mxCell>
                <mxCell id="1251" value="Assignment" style="strokeWidth=1;shadow=0;dashed=0;align=center;html=1;shape=mxgraph.mockup.navigation.anchor;fontSize=17;fontColor=#666666;fontStyle=1;fillColor=none;" vertex="1" parent="1248">
                    <mxGeometry x="120" width="100" height="30" as="geometry"/>
                </mxCell>
                <mxCell id="1252" value="&gt;" style="strokeWidth=1;shadow=0;dashed=0;align=center;html=1;shape=mxgraph.mockup.navigation.anchor;fontSize=24;fontColor=#aaaaaa;fontStyle=1;fillColor=none;" vertex="1" parent="1248">
                    <mxGeometry x="220" width="20" height="30" as="geometry"/>
                </mxCell>
                <mxCell id="1253" value="Question-x" style="strokeWidth=1;shadow=0;dashed=0;align=center;html=1;shape=mxgraph.mockup.navigation.anchor;fontSize=17;fontColor=#008cff;fontStyle=1;fillColor=none;" vertex="1" parent="1237">
                    <mxGeometry x="290" y="190" width="110" height="30" as="geometry"/>
                </mxCell>
                <mxCell id="1254" value="&lt;table border=&quot;0&quot; cellpadding=&quot;0&quot; cellspacing=&quot;0&quot; width=&quot;100%&quot; style=&quot;font-size: 1em&quot;&gt;&lt;tbody&gt;&lt;tr&gt;&lt;td width=&quot;25%&quot;&gt;&lt;font color=&quot;#000000&quot;&gt;Info&lt;/font&gt;&lt;/td&gt;&lt;td width=&quot;25%&quot;&gt;&lt;font color=&quot;#3399ff&quot;&gt;Questions&lt;/font&gt;&lt;/td&gt;&lt;td width=&quot;25%&quot;&gt;&lt;font color=&quot;#4d4d4d&quot;&gt;Students&lt;/font&gt;&lt;/td&gt;&lt;td width=&quot;25%&quot;&gt;Summary&lt;/td&gt;&lt;/tr&gt;&lt;tr&gt;&lt;td&gt;&lt;/td&gt;&lt;/tr&gt;&lt;/tbody&gt;&lt;/table&gt;" style="strokeWidth=1;shadow=0;dashed=0;align=center;html=1;shape=mxgraph.mockup.navigation.stepBar;strokeColor=#c4c4c4;textColor=#666666;textColor2=#008cff;mainText=,,+,;textSize=17;fillColor=#666666;overflow=fill;fontSize=17;fontColor=#666666;" vertex="1" parent="1237">
                    <mxGeometry x="150" y="240" width="300" height="50" as="geometry"/>
                </mxCell>
                <mxCell id="1265" value="" style="html=1;shadow=0;dashed=0;shape=mxgraph.bootstrap.rrect;rSize=5;strokeColor=none;html=1;whiteSpace=wrap;fillColor=#6C767D;fontColor=#ffffff;" vertex="1" parent="1237">
                    <mxGeometry x="240" y="650" width="180" height="30" as="geometry"/>
                </mxCell>
                <mxCell id="1266" value="&lt;font color=&quot;#b3b3b3&quot;&gt;Back&lt;/font&gt;" style="strokeColor=inherit;fillColor=inherit;gradientColor=inherit;fontColor=inherit;html=1;shadow=0;dashed=0;shape=mxgraph.bootstrap.leftButton;rSize=5;perimeter=none;whiteSpace=wrap;resizeHeight=1;" vertex="1" parent="1265">
                    <mxGeometry width="60" height="30" relative="1" as="geometry"/>
                </mxCell>
                <mxCell id="1267" value="" style="strokeColor=inherit;fillColor=inherit;gradientColor=inherit;fontColor=inherit;html=1;shadow=0;dashed=0;perimeter=none;whiteSpace=wrap;resizeHeight=1;" vertex="1" parent="1265">
                    <mxGeometry width="60" height="30" relative="1" as="geometry">
                        <mxPoint x="60" as="offset"/>
                    </mxGeometry>
                </mxCell>
                <mxCell id="1268" value="&lt;font color=&quot;#ffffff&quot;&gt;NEXT&lt;/font&gt;" style="strokeColor=inherit;fillColor=inherit;gradientColor=inherit;fontColor=inherit;html=1;shadow=0;dashed=0;shape=mxgraph.bootstrap.rightButton;rSize=5;perimeter=none;whiteSpace=wrap;resizeHeight=1;" vertex="1" parent="1265">
                    <mxGeometry x="1" width="60" height="30" relative="1" as="geometry">
                        <mxPoint x="-60" as="offset"/>
                    </mxGeometry>
                </mxCell>
                <mxCell id="1288" value="" style="html=1;shadow=0;dashed=0;shape=mxgraph.bootstrap.rrect;rSize=5;strokeColor=#DFDFDF;html=1;whiteSpace=wrap;fillColor=#FFFFFF;fontColor=#000000;align=center;" vertex="1" parent="1237">
                    <mxGeometry x="100" y="330" width="240" height="280" as="geometry"/>
                </mxCell>
                <mxCell id="1289" value="Featured" style="html=1;shadow=0;dashed=0;shape=mxgraph.bootstrap.topButton;strokeColor=inherit;fillColor=#F7F7F7;rSize=5;perimeter=none;whiteSpace=wrap;resizeWidth=1;align=left;spacing=10;" vertex="1" parent="1288">
                    <mxGeometry width="240" height="30" relative="1" as="geometry"/>
                </mxCell>
                <mxCell id="1290" value="Cras justo odio" style="strokeColor=inherit;fillColor=inherit;gradientColor=inherit;fontColor=inherit;html=1;shadow=0;dashed=0;perimeter=none;whiteSpace=wrap;resizeWidth=1;align=left;spacing=10;" vertex="1" parent="1288">
                    <mxGeometry width="240" height="30" relative="1" as="geometry">
                        <mxPoint y="30" as="offset"/>
                    </mxGeometry>
                </mxCell>
                <mxCell id="1291" value="Dapibus ac facilisis in" style="strokeColor=inherit;fillColor=inherit;gradientColor=inherit;fontColor=inherit;html=1;shadow=0;dashed=0;perimeter=none;whiteSpace=wrap;resizeWidth=1;align=left;spacing=10;" vertex="1" parent="1288">
                    <mxGeometry width="240" height="30" relative="1" as="geometry">
                        <mxPoint y="60" as="offset"/>
                    </mxGeometry>
                </mxCell>
                <mxCell id="1292" value="Vestibulum at eros" style="strokeColor=inherit;fillColor=inherit;gradientColor=inherit;fontColor=inherit;html=1;shadow=0;dashed=0;shape=mxgraph.bootstrap.bottomButton;rSize=5;perimeter=none;whiteSpace=wrap;resizeWidth=1;resizeHeight=0;align=left;spacing=10;" vertex="1" parent="1288">
                    <mxGeometry y="1" width="240" height="30" relative="1" as="geometry">
                        <mxPoint y="-30" as="offset"/>
                    </mxGeometry>
                </mxCell>
                <mxCell id="1294" value="Dapibus ac facilisis in" style="strokeColor=inherit;fillColor=inherit;gradientColor=inherit;fontColor=inherit;html=1;shadow=0;dashed=0;perimeter=none;whiteSpace=wrap;resizeWidth=1;align=left;spacing=10;" vertex="1" parent="1288">
                    <mxGeometry y="89.99561739130435" width="240" height="36.52173913043479" as="geometry"/>
                </mxCell>
                <mxCell id="1295" value="Dapibus ac facilisis in" style="strokeColor=inherit;fillColor=inherit;gradientColor=inherit;fontColor=inherit;html=1;shadow=0;dashed=0;perimeter=none;whiteSpace=wrap;resizeWidth=1;align=left;spacing=10;" vertex="1" parent="1288">
                    <mxGeometry y="126.52200000000002" width="240" height="33.6" as="geometry"/>
                </mxCell>
                <mxCell id="1299" value="Dapibus ac facilisis in" style="strokeColor=inherit;fillColor=inherit;gradientColor=inherit;fontColor=inherit;html=1;shadow=0;dashed=0;perimeter=none;whiteSpace=wrap;resizeWidth=1;align=left;spacing=10;" vertex="1" parent="1288">
                    <mxGeometry y="156.79999999999998" width="240" height="33.6" as="geometry"/>
                </mxCell>
                <mxCell id="1300" value="Dapibus ac facilisis in" style="strokeColor=inherit;fillColor=inherit;gradientColor=inherit;fontColor=inherit;html=1;shadow=0;dashed=0;perimeter=none;whiteSpace=wrap;resizeWidth=1;align=left;spacing=10;" vertex="1" parent="1288">
                    <mxGeometry y="190.4" width="240" height="33.6" as="geometry"/>
                </mxCell>
                <mxCell id="1301" value="Dapibus ac facilisis in" style="strokeColor=inherit;fillColor=inherit;gradientColor=inherit;fontColor=inherit;html=1;shadow=0;dashed=0;perimeter=none;whiteSpace=wrap;resizeWidth=1;align=left;spacing=10;" vertex="1" parent="1288">
                    <mxGeometry y="212.79999999999998" width="240" height="33.6" as="geometry"/>
                </mxCell>
                <mxCell id="1302" value="" style="html=1;shadow=0;dashed=0;shape=mxgraph.bootstrap.rrect;rSize=5;strokeColor=#DFDFDF;html=1;whiteSpace=wrap;fillColor=#FFFFFF;fontColor=#000000;align=center;" vertex="1" parent="1237">
                    <mxGeometry x="420" y="330" width="240" height="280" as="geometry"/>
                </mxCell>
                <mxCell id="1303" value="Featured" style="html=1;shadow=0;dashed=0;shape=mxgraph.bootstrap.topButton;strokeColor=inherit;fillColor=#F7F7F7;rSize=5;perimeter=none;whiteSpace=wrap;resizeWidth=1;align=left;spacing=10;" vertex="1" parent="1302">
                    <mxGeometry width="240" height="30" relative="1" as="geometry"/>
                </mxCell>
                <mxCell id="1304" value="Cras justo odio" style="strokeColor=inherit;fillColor=inherit;gradientColor=inherit;fontColor=inherit;html=1;shadow=0;dashed=0;perimeter=none;whiteSpace=wrap;resizeWidth=1;align=left;spacing=10;" vertex="1" parent="1302">
                    <mxGeometry width="240" height="30" relative="1" as="geometry">
                        <mxPoint y="30" as="offset"/>
                    </mxGeometry>
                </mxCell>
                <mxCell id="1305" value="Dapibus ac facilisis in" style="strokeColor=inherit;fillColor=inherit;gradientColor=inherit;fontColor=inherit;html=1;shadow=0;dashed=0;perimeter=none;whiteSpace=wrap;resizeWidth=1;align=left;spacing=10;" vertex="1" parent="1302">
                    <mxGeometry width="240" height="30" relative="1" as="geometry">
                        <mxPoint y="60" as="offset"/>
                    </mxGeometry>
                </mxCell>
                <mxCell id="1307" value="Dapibus ac facilisis in" style="strokeColor=inherit;fillColor=inherit;gradientColor=inherit;fontColor=inherit;html=1;shadow=0;dashed=0;perimeter=none;whiteSpace=wrap;resizeWidth=1;align=left;spacing=10;" vertex="1" parent="1302">
                    <mxGeometry y="89.99561739130435" width="240" height="36.52173913043479" as="geometry"/>
                </mxCell>
                <mxCell id="1309" value="" style="strokeColor=inherit;fillColor=inherit;gradientColor=inherit;fontColor=inherit;html=1;shadow=0;dashed=0;perimeter=none;whiteSpace=wrap;resizeWidth=1;align=left;spacing=10;" vertex="1" parent="1302">
                    <mxGeometry y="156.79999999999998" width="240" height="33.6" as="geometry"/>
                </mxCell>
                <mxCell id="1310" value="" style="strokeColor=inherit;fillColor=inherit;gradientColor=inherit;fontColor=inherit;html=1;shadow=0;dashed=0;perimeter=none;whiteSpace=wrap;resizeWidth=1;align=left;spacing=10;" vertex="1" parent="1302">
                    <mxGeometry y="190.4" width="240" height="33.6" as="geometry"/>
                </mxCell>
                <mxCell id="1314" value="" style="group" vertex="1" connectable="0" parent="1237">
                    <mxGeometry x="350" y="480" width="60" height="30" as="geometry"/>
                </mxCell>
                <mxCell id="1312" value="" style="shape=flexArrow;endArrow=classic;html=1;fontColor=#66B2FF;" edge="1" parent="1314">
                    <mxGeometry width="50" height="50" relative="1" as="geometry">
                        <mxPoint as="sourcePoint"/>
                        <mxPoint x="60" as="targetPoint"/>
                    </mxGeometry>
                </mxCell>
                <mxCell id="1313" value="" style="shape=flexArrow;endArrow=classic;html=1;fontColor=#66B2FF;" edge="1" parent="1314">
                    <mxGeometry width="50" height="50" relative="1" as="geometry">
                        <mxPoint x="60" y="30" as="sourcePoint"/>
                        <mxPoint y="30" as="targetPoint"/>
                    </mxGeometry>
                </mxCell>
            </root>
        </mxGraphModel>
    </diagram>
</mxfile>